<svg width="601" height="278" viewBox="0 0 601 278" fill="none" xmlns="http://www.w3.org/2000/svg">
<path d="M293.499 209.417H218.701L265.623 173.575C281.821 161.231 292.485 150.466 299.096 140.042C305.722 129.595 308.258 119.522 308.258 108.614C308.258 94.2095 301.753 81.7864 290.328 72.9859C278.917 64.1962 262.63 59.0393 243.046 59.0393C211.036 59.0393 183.173 72.3496 168.273 92.5642L167.772 93.2433L168.458 93.734L183.793 104.699C191.69 110.347 202.32 108.544 210.229 103.415C218.251 98.2134 227.39 95.4448 236.739 95.4448C245.562 95.4448 252.126 97.4306 256.465 100.781C260.777 104.111 262.974 108.849 262.974 114.577C262.974 126.083 256.966 135.458 236.227 151.775C236.227 151.776 236.226 151.777 236.225 151.777L152.404 216.591L152.159 216.78L152.097 217.083L146.579 244.307L146.377 245.304H147.394H268.738C279.559 245.304 288.874 237.664 290.993 227.052L294.315 210.411L294.513 209.417H293.499Z" stroke="url(#paint0_linear_1_6)" stroke-width="1.66308"/>
<path d="M432.82 208.338H358.021L404.944 172.495C421.142 160.152 431.805 149.387 438.416 138.963C445.042 128.516 447.579 118.443 447.579 107.535C447.579 93.1304 441.073 80.7073 429.648 71.9068C418.237 63.1171 401.951 57.9602 382.366 57.9602C350.357 57.9602 322.493 71.2705 307.593 91.4851L307.092 92.1642L307.778 92.6549L323.113 103.62C331.01 109.268 341.641 107.465 349.55 102.336C357.572 97.1343 366.711 94.3657 376.059 94.3657C384.883 94.3657 391.446 96.3515 395.785 99.7018C400.097 103.031 402.294 107.77 402.294 113.498C402.294 125.004 396.286 134.379 375.548 150.696C375.547 150.697 375.546 150.697 375.545 150.698L291.724 215.512L291.479 215.701L291.418 216.004L285.899 243.228L285.697 244.225H286.714H408.058C418.879 244.225 428.195 236.585 430.313 225.973L433.635 209.332L433.834 208.338H432.82Z" stroke="url(#paint1_linear_1_6)" stroke-width="1.66308"/>
<circle cx="299.565" cy="138.867" r="138.035" stroke="white" stroke-opacity="0.32" stroke-width="1.66308" stroke-dasharray="21.62 21.62"/>
<path d="M325.098 207.754H250.299L297.222 171.912C313.42 159.568 324.083 148.803 330.694 138.379C337.32 127.932 339.857 117.859 339.857 106.951C339.857 92.5464 333.352 80.1233 321.927 71.3228C310.515 62.5331 294.229 57.3762 274.644 57.3762C242.635 57.3762 214.772 70.6865 199.871 90.9011L199.37 91.5802L200.057 92.0709L215.391 103.036C223.288 108.684 233.919 106.881 241.828 101.752C249.85 96.5503 258.989 93.7817 268.338 93.7817C277.161 93.7817 283.725 95.7675 288.063 99.1178C292.376 102.447 294.572 107.186 294.572 112.914C294.572 124.42 288.564 133.795 267.826 150.112C267.825 150.113 267.824 150.113 267.823 150.114L184.002 214.928L183.757 215.117L183.696 215.42L178.177 242.644L177.975 243.641H178.992H300.336C311.157 243.641 320.473 236.001 322.591 225.389L325.913 208.748L326.112 207.754H325.098Z" stroke="url(#paint2_linear_1_6)" stroke-width="1.66308"/>
<path d="M464.418 206.675H389.62L436.542 170.832C452.74 158.489 463.403 147.724 470.015 137.3C476.641 126.853 479.177 116.78 479.177 105.872C479.177 91.4673 472.672 79.0442 461.247 70.2437C449.836 61.454 433.549 56.2971 413.965 56.2971C381.955 56.2971 354.092 69.6074 339.191 89.822L338.691 90.5011L339.377 90.9918L354.711 101.957C362.608 107.604 373.239 105.802 381.148 100.673C389.17 95.4712 398.309 92.7026 407.658 92.7026C416.481 92.7026 423.045 94.6884 427.384 98.0387C431.696 101.368 433.893 106.107 433.893 111.835C433.893 123.341 427.884 132.715 407.146 149.033C407.145 149.034 407.145 149.034 407.144 149.035L323.322 213.849L323.078 214.038L323.016 214.341L317.498 241.565L317.296 242.561H318.313H439.657C450.477 242.561 459.793 234.922 461.912 224.31L465.234 207.669L465.432 206.675H464.418Z" stroke="url(#paint3_linear_1_6)" stroke-width="1.66308"/>
<path d="M278.424 172.913C310.746 148.282 320.731 130.133 320.731 108.614C320.731 80.3533 295.242 59.8708 256.35 59.8708C224.554 59.8708 196.962 73.0937 182.246 93.0576L197.581 104.023C205.094 109.396 215.332 107.743 223.081 102.718C231.234 97.4315 240.529 94.6132 250.044 94.6132C267.913 94.6132 277.11 102.651 277.11 114.577C277.11 126.504 270.803 136.097 250.044 152.431L166.217 217.249L160.699 244.472H282.042C292.467 244.472 301.441 237.112 303.482 226.89L306.804 210.248H229.547L278.424 172.913Z" fill="url(#paint4_linear_1_6)" fill-opacity="0.6"/>
<path d="M419.407 171.834C451.729 147.203 461.714 129.054 461.714 107.535C461.714 79.2742 436.225 58.7917 397.333 58.7917C365.537 58.7917 337.945 72.0146 323.229 91.9785L338.564 102.944C346.077 108.317 356.315 106.664 364.064 101.638C372.216 96.3524 381.512 93.5341 391.027 93.5341C408.896 93.5341 418.093 101.572 418.093 113.498C418.093 125.425 411.786 135.018 391.027 151.352L307.2 216.17L301.681 243.393H423.025C433.45 243.393 442.424 236.033 444.465 225.81L447.787 209.169H370.53L419.407 171.834Z" fill="url(#paint5_linear_1_6)" fill-opacity="0.6"/>
<path d="M278.424 172.913C310.746 148.282 320.731 130.133 320.731 108.614C320.731 80.3533 295.242 59.8708 256.35 59.8708C224.554 59.8708 196.962 73.0937 182.246 93.0576L197.581 104.023C205.094 109.396 215.332 107.743 223.081 102.718C231.234 97.4315 240.529 94.6132 250.044 94.6132C267.913 94.6132 277.11 102.651 277.11 114.577C277.11 126.504 270.803 136.097 250.044 152.431L166.217 217.249L160.699 244.472H282.042C292.467 244.472 301.441 237.112 303.482 226.89L306.804 210.248H229.547L278.424 172.913Z" fill="url(#paint6_linear_1_6)" fill-opacity="0.6"/>
<path d="M419.407 171.834C451.729 147.203 461.714 129.054 461.714 107.535C461.714 79.2742 436.225 58.7917 397.333 58.7917C365.537 58.7917 337.945 72.0146 323.229 91.9785L338.564 102.944C346.077 108.317 356.315 106.664 364.064 101.638C372.216 96.3524 381.512 93.5341 391.027 93.5341C408.896 93.5341 418.093 101.572 418.093 113.498C418.093 125.425 411.786 135.018 391.027 151.352L307.2 216.17L301.681 243.393H423.025C433.45 243.393 442.424 236.033 444.465 225.81L447.787 209.169H370.53L419.407 171.834Z" fill="url(#paint7_linear_1_6)" fill-opacity="0.6"/>
<path d="M278.424 172.913C310.746 148.282 320.731 130.133 320.731 108.614C320.731 80.3533 295.242 59.8708 256.35 59.8708C224.554 59.8708 196.962 73.0937 182.246 93.0576L197.581 104.023C205.094 109.396 215.332 107.743 223.081 102.718C231.234 97.4315 240.529 94.6132 250.044 94.6132C267.913 94.6132 277.11 102.651 277.11 114.577C277.11 126.504 270.803 136.097 250.044 152.431L166.217 217.249L160.699 244.472H282.042C292.467 244.472 301.441 237.112 303.482 226.89L306.804 210.248H229.547L278.424 172.913Z" fill="url(#paint8_linear_1_6)" fill-opacity="0.6"/>
<path d="M419.407 171.834C451.729 147.203 461.714 129.054 461.714 107.535C461.714 79.2742 436.225 58.7917 397.333 58.7917C365.537 58.7917 337.945 72.0146 323.229 91.9785L338.564 102.944C346.077 108.317 356.315 106.664 364.064 101.638C372.216 96.3524 381.512 93.5341 391.027 93.5341C408.896 93.5341 418.093 101.572 418.093 113.498C418.093 125.425 411.786 135.018 391.027 151.352L307.2 216.17L301.681 243.393H423.025C433.45 243.393 442.424 236.033 444.465 225.81L447.787 209.169H370.53L419.407 171.834Z" fill="url(#paint9_linear_1_6)" fill-opacity="0.6"/>
<g filter="url(#filter0_d_1_6)">
<path d="M133.235 119.742L119.268 192.591C131.975 193.686 137.708 183.188 138.986 177.802C145.833 141.377 145.285 134.257 160.348 134.257C171.522 134.257 173.037 142.473 172.398 146.581C171.522 157.755 161.078 159.715 153.775 159.167C146.326 159.825 141.542 168.49 141.451 172.872H157.883C181.326 172.215 187.552 153.508 188.282 144.379C188.282 123.291 172.398 119.742 163.36 119.742H133.235Z" stroke="white" stroke-opacity="0.19" stroke-width="1.66308"/>
<path d="M257.751 141.896L258.53 142.377L258.934 141.556L266.259 126.678L266.605 125.976L265.925 125.588C259.356 121.843 249.393 119.606 239.484 119.606C229.562 119.606 220.893 121.654 214.522 125.604C207.536 129.934 203.335 136.545 203.335 145.104C203.335 151.303 205.787 155.483 209.48 158.362C213.125 161.203 217.935 162.744 222.619 163.826C224.639 164.293 226.659 164.679 228.568 165.044C228.88 165.103 229.188 165.162 229.493 165.221C231.681 165.642 233.685 166.046 235.393 166.532C237.113 167.021 238.448 167.573 239.342 168.249C240.202 168.899 240.614 169.628 240.614 170.553C240.614 172.29 239.778 173.724 237.773 174.776C235.709 175.858 232.435 176.508 227.711 176.508C224.81 176.508 221.834 176.225 218.934 175.7C209.965 174.078 199.108 176.698 194.669 185.04L195.403 185.431L194.922 186.109C201.003 190.424 212.971 193.571 225.488 193.571C235.725 193.571 244.762 191.431 251.269 187.187C257.808 182.922 261.767 176.537 261.767 168.204C261.767 162.098 259.319 157.991 255.637 155.162C252.006 152.372 247.214 150.857 242.549 149.775C240.661 149.337 238.771 148.966 236.973 148.613C236.544 148.528 236.12 148.445 235.703 148.362C233.525 147.93 231.529 147.508 229.83 146.999C228.12 146.486 226.791 145.907 225.901 145.199C225.044 144.518 224.619 143.744 224.619 142.755C224.619 141.224 225.445 139.743 227.466 138.601C229.516 137.443 232.756 136.669 237.391 136.669C243.836 136.669 251.385 137.958 257.751 141.896Z" stroke="white" stroke-opacity="0.19" stroke-width="1.66308"/>
<path d="M236.756 166.174C208 148.099 223.884 137.692 231.552 136.597C243.821 134.406 254.557 138.97 258.392 141.526L265.786 126.19C234.237 111.291 207.397 125.094 204.713 138.514C200.058 163.709 223.337 161.792 236.756 166.174Z" stroke="white" stroke-opacity="0.19" stroke-width="1.66308"/>
<path d="M579.814 120.459L580.022 119.458H579H526.017H525.335L525.201 120.127L516.165 165.306C513.483 178.718 523.742 191.232 537.42 191.232H552.982C561.121 191.232 568.143 185.518 569.798 177.549L568.984 177.38V176.548H531.763C533.914 168.028 541.595 161.986 550.468 161.986H553.714C561.59 161.986 568.367 156.421 569.9 148.696L569.084 148.534V147.703H537.574C539.607 139.765 546.776 134.142 555.055 134.142H564.636C571.821 134.142 578.02 129.098 579.481 122.063L579.814 120.459Z" stroke="white" stroke-opacity="0.19" stroke-width="1.66308"/>
<path d="M443.26 190.237L443.061 191.232H444.075H495.456V190.4L496.271 190.567C497.773 183.223 492.162 176.348 484.666 176.348H477.317C470.44 176.348 465.284 170.054 466.637 163.311L472.422 134.485C473.982 126.713 468.039 119.458 460.112 119.458H458.098H457.416L457.282 120.127L443.26 190.237Z" stroke="white" stroke-opacity="0.19" stroke-width="1.66308"/>
<path d="M468.998 120.29H458.043L444.075 190.4H479.131C464.232 188.647 462.881 177.072 464.068 171.503L473.106 126.041C474.42 121.659 470.915 120.381 468.998 120.29Z" stroke="white" stroke-opacity="0.19" stroke-width="1.66308"/>
<path d="M410.892 190.853L411.035 191.506H411.704H416.298C422.755 191.506 427.502 185.451 425.961 179.181L414.678 133.26C412.726 125.316 405.604 119.732 397.424 119.732H394.677H394.225L393.979 120.112L348.607 190.222L347.777 191.506H349.306H358.559C363.862 191.506 368.781 188.737 371.531 184.203C374.439 179.409 379.639 176.482 385.246 176.482H407.73L410.892 190.853ZM393.848 162.499H384.742L392.238 150.233C394.836 145.982 401.289 147.068 402.353 151.935C403.539 157.364 399.405 162.499 393.848 162.499Z" stroke="white" stroke-opacity="0.19" stroke-width="1.66308"/>
<path d="M394.505 120.29L348.769 191.222H352.647C361.292 191.222 369.311 186.711 373.8 179.322L392.862 147.95C407.651 123.028 411.485 124.398 411.485 124.398C409.435 119.956 403.279 120.29 398.387 120.29H394.505Z" stroke="white" stroke-opacity="0.19" stroke-width="1.66308"/>
<path d="M89.0674 163.287C83.8641 180.541 65.2411 177.254 65.2408 166.299C60.2014 190.181 78.4779 192.317 88.246 190.4C116.728 183.005 112.894 140.83 118.098 120.29C104.828 121.746 94.1609 131.878 92.024 145.055L89.0674 163.287Z" stroke="white" stroke-opacity="0.19" stroke-width="1.66308"/>
<path d="M57.0179 120.838H50.9994L44.9735 161.644C42.5096 184.923 63.3238 201.629 92.6276 189.031C59.9119 189.77 66.4129 163.533 70.5615 136.071C71.8011 127.865 65.3169 120.838 57.0179 120.838Z" stroke="white" stroke-opacity="0.19" stroke-width="1.66308"/>
<path d="M291.054 159.716C292.601 138.53 308.473 132.107 321.144 134.59C329.245 136.178 339.286 137.428 345.554 132.055C309.403 104.668 276.166 129.864 274.896 159.716C273.253 198.331 321.454 199.701 338.433 180.804C333.356 175.278 324.586 175.459 317.398 177.615C304.967 181.342 291.054 176.2 291.054 159.716Z" stroke="white" stroke-opacity="0.19" stroke-width="1.66308"/>
<path d="M317.852 134.276C281.482 131.866 276.122 153.447 274.854 165.224C273.485 116.749 320.864 110.724 345.786 131.811C337.843 142.493 324.151 134.276 317.852 134.276Z" stroke="white" stroke-opacity="0.19" stroke-width="1.66308"/>
</g>
<g filter="url(#filter1_d_1_6)">
<path d="M109.459 119.741L95.4921 192.59C108.2 193.686 113.933 183.188 115.211 177.802C122.057 141.377 121.51 134.257 136.572 134.257C147.746 134.257 149.262 142.473 148.623 146.581C147.746 157.754 137.303 159.715 130 159.167C122.55 159.824 117.767 168.49 117.675 172.872H134.108C157.551 172.215 163.777 153.507 164.507 144.378C164.507 123.291 148.623 119.742 139.585 119.741H109.459Z" stroke="white" stroke-opacity="0.19" stroke-width="1.66308"/>
<path d="M233.975 141.895L234.754 142.377L235.159 141.555L242.484 126.677L242.829 125.975L242.15 125.587C235.58 121.842 225.617 119.605 215.708 119.605C205.787 119.605 197.117 121.654 190.746 125.603C183.761 129.933 179.56 136.544 179.56 145.103C179.56 151.302 182.011 155.482 185.705 158.361C189.349 161.202 194.159 162.743 198.843 163.825C200.863 164.292 202.883 164.678 204.793 165.043C205.104 165.103 205.413 165.162 205.718 165.22C207.905 165.641 209.91 166.045 211.617 166.531C213.337 167.021 214.673 167.572 215.567 168.248C216.426 168.898 216.838 169.627 216.838 170.552C216.838 172.289 216.003 173.723 213.997 174.775C211.933 175.857 208.659 176.507 203.936 176.507C201.035 176.507 198.058 176.224 195.159 175.699C186.19 174.077 175.333 176.697 170.893 185.039L171.627 185.43L171.146 186.108C177.228 190.423 189.195 193.57 201.712 193.57C211.949 193.57 220.987 191.43 227.493 187.187C234.033 182.921 237.991 176.537 237.991 168.203C237.991 162.097 235.544 157.99 231.862 155.161C228.23 152.372 223.438 150.856 218.773 149.774C216.885 149.336 214.995 148.965 213.197 148.612C212.768 148.528 212.345 148.444 211.927 148.362C209.75 147.929 207.754 147.507 206.055 146.998C204.345 146.486 203.016 145.906 202.125 145.198C201.269 144.518 200.843 143.743 200.843 142.754C200.843 141.223 201.669 139.742 203.691 138.6C205.741 137.442 208.981 136.668 213.615 136.668C220.06 136.668 227.609 137.957 233.975 141.895Z" stroke="white" stroke-opacity="0.19" stroke-width="1.66308"/>
<path d="M212.981 166.173C184.225 148.098 200.109 137.691 207.777 136.596C220.046 134.405 230.782 138.969 234.617 141.525L242.011 126.189C210.462 111.29 183.622 125.093 180.938 138.513C176.283 163.708 199.562 161.791 212.981 166.173Z" stroke="white" stroke-opacity="0.19" stroke-width="1.66308"/>
<path d="M556.039 120.458L556.246 119.458H555.224H502.241H501.559L501.426 120.126L492.39 165.305C489.707 178.718 499.966 191.231 513.644 191.231H529.206C537.346 191.231 544.368 185.518 546.023 177.548L545.209 177.379V176.548H507.987C510.138 168.027 517.819 161.985 526.692 161.985H529.939C537.814 161.985 544.592 156.42 546.124 148.696L545.309 148.534V147.702H513.798C515.831 139.765 523.001 134.141 531.28 134.141H540.861C548.046 134.141 554.244 129.098 555.705 122.063L556.039 120.458Z" stroke="white" stroke-opacity="0.19" stroke-width="1.66308"/>
<path d="M419.485 190.237L419.286 191.231H420.3H471.681V190.4L472.495 190.566C473.998 183.222 468.386 176.347 460.89 176.347H453.541C446.664 176.347 441.508 170.053 442.861 163.311L448.647 134.485C450.207 126.713 444.263 119.458 436.336 119.458H434.322H433.64L433.507 120.126L419.485 190.237Z" stroke="white" stroke-opacity="0.19" stroke-width="1.66308"/>
<path d="M445.222 120.289H434.267L420.3 190.4H455.355C440.457 188.647 439.106 177.071 440.292 171.503L449.33 126.041C450.645 121.659 447.139 120.381 445.222 120.289Z" stroke="white" stroke-opacity="0.19" stroke-width="1.66308"/>
<path d="M387.117 190.852L387.261 191.505H387.929H392.524C398.981 191.505 403.728 185.451 402.187 179.18L390.903 133.259C388.952 125.316 381.829 119.732 373.65 119.732H370.902H370.45L370.204 120.111L324.833 190.222L324.002 191.505H325.531H334.784C340.088 191.505 345.006 188.736 347.757 184.202C350.665 179.409 355.864 176.481 361.471 176.481H383.955L387.117 190.852ZM370.073 162.499H360.967L368.463 150.233C371.061 145.982 377.515 147.068 378.578 151.935C379.765 157.363 375.63 162.499 370.073 162.499Z" stroke="white" stroke-opacity="0.19" stroke-width="1.66308"/>
<path d="M370.729 120.289L324.993 191.221H328.871C337.517 191.221 345.536 186.71 350.025 179.322L369.086 147.95C383.875 123.028 387.709 124.397 387.709 124.397C385.659 119.955 379.504 120.289 374.611 120.289H370.729Z" stroke="white" stroke-opacity="0.19" stroke-width="1.66308"/>
<path d="M65.2918 163.286C60.0885 180.54 41.4655 177.254 41.4652 166.299C36.4258 190.18 54.7023 192.316 64.4704 190.399C92.9527 183.005 89.1186 140.829 94.3221 120.289C81.0524 121.745 70.3853 131.877 68.2484 145.055L65.2918 163.286Z" stroke="white" stroke-opacity="0.19" stroke-width="1.66308"/>
<path d="M33.2423 120.837H27.2238L21.1978 161.644C18.734 184.922 39.5482 201.628 68.852 189.03C36.1362 189.77 42.6373 163.533 46.7858 136.07C48.0255 127.864 41.5413 120.837 33.2423 120.837Z" stroke="white" stroke-opacity="0.19" stroke-width="1.66308"/>
<path d="M267.28 159.717C268.826 138.532 284.698 132.108 297.37 134.592C305.471 136.18 315.512 137.429 321.78 132.057C285.629 104.669 252.392 129.865 251.122 159.717C249.478 198.333 297.679 199.702 314.659 180.805C309.581 175.279 300.812 175.461 293.624 177.616C281.193 181.344 267.28 176.202 267.28 159.717Z" stroke="white" stroke-opacity="0.19" stroke-width="1.66308"/>
<path d="M294.076 134.276C257.707 131.866 252.346 153.447 251.079 165.223C249.709 116.748 297.088 110.723 322.011 131.811C314.068 142.492 300.375 134.276 294.076 134.276Z" stroke="white" stroke-opacity="0.19" stroke-width="1.66308"/>
</g>
<path d="M119.948 119.742L105.981 192.591C118.688 193.686 124.421 183.188 125.699 177.802C132.546 141.377 131.998 134.257 147.061 134.257C158.235 134.257 159.75 142.473 159.111 146.581C158.235 157.755 147.791 159.715 140.488 159.167C133.039 159.825 128.255 168.49 128.164 172.872H144.596C168.039 172.215 174.265 153.508 174.995 144.379C174.995 123.291 159.111 119.742 150.073 119.742H119.948Z" fill="url(#paint10_linear_1_6)"/>
<path d="M212.2 192.739C232.475 192.739 247.648 184.256 247.648 168.204C247.648 144.843 210.5 153.065 210.5 142.755C210.5 138.97 214.686 135.838 224.103 135.838C230.644 135.838 238.361 137.143 244.901 141.188L252.226 126.311C245.817 122.656 236.006 120.438 226.196 120.438C216.377 120.438 207.874 122.467 201.673 126.311C194.905 130.506 190.88 136.863 190.88 145.104C190.88 168.856 228.158 160.634 228.158 170.553C228.158 174.729 223.973 177.339 214.424 177.339C211.47 177.339 208.444 177.051 205.499 176.518C196.707 174.928 186.313 177.543 182.116 185.431V185.431C188.002 189.607 199.774 192.739 212.2 192.739Z" fill="url(#paint11_linear_1_6)"/>
<path d="M223.47 166.174C194.713 148.099 210.597 137.692 218.266 136.597C230.535 134.406 241.271 138.97 245.105 141.526L252.5 126.19C220.95 111.291 194.111 125.094 191.427 138.514C186.771 163.709 210.05 161.792 223.47 166.174Z" fill="url(#paint12_linear_1_6)"/>
<path d="M551.35 133.31C558.141 133.31 563.999 128.544 565.38 121.894L565.714 120.29H512.73L503.694 165.469C501.115 178.367 510.98 190.4 524.133 190.4H539.695C547.441 190.4 554.123 184.963 555.698 177.38V177.38H517.438V177.38C519.3 167.95 527.57 161.154 537.182 161.154H540.428C547.906 161.154 554.343 155.87 555.798 148.534V148.534H523.247V148.534C524.993 139.687 532.752 133.31 541.769 133.31H551.35Z" fill="url(#paint13_linear_1_6)"/>
<path d="M430.789 190.4H482.17V190.4C483.566 183.572 478.349 177.179 471.379 177.179H464.03C456.628 177.179 451.078 170.405 452.535 163.148L458.32 134.321C459.777 127.064 454.227 120.29 446.825 120.29H444.811L430.789 190.4Z" fill="url(#paint14_linear_1_6)"/>
<path d="M455.711 120.29H444.756L430.789 190.4H465.844C450.945 188.647 449.594 177.072 450.781 171.503L459.819 126.041C461.133 121.659 457.628 120.381 455.711 120.29Z" fill="url(#paint15_linear_1_6)"/>
<path d="M398.418 190.674H403.013C408.93 190.674 413.28 185.125 411.868 179.379L400.585 133.458C398.725 125.887 391.935 120.564 384.139 120.564H381.391L336.02 190.674H345.274C350.286 190.674 354.935 188.057 357.535 183.771V183.771C360.594 178.729 366.063 175.65 371.96 175.65H395.113L398.418 190.674ZM369.974 163.331L378.243 149.799C381.231 144.909 388.656 146.158 389.88 151.758V151.758C391.179 157.705 386.65 163.331 380.562 163.331H369.974Z" fill="url(#paint16_linear_1_6)"/>
<path d="M381.219 120.29L335.483 191.222H339.361C348.007 191.222 356.025 186.711 360.515 179.322L379.576 147.95C394.365 123.028 398.199 124.398 398.199 124.398C396.149 119.956 389.994 120.29 385.101 120.29H381.219Z" fill="url(#paint17_linear_1_6)"/>
<path d="M75.7817 163.287C70.5784 180.541 51.9554 177.254 51.9551 166.299C46.9158 190.181 65.1922 192.317 74.9604 190.4C103.443 183.005 99.6085 140.83 104.812 120.29C91.5423 121.746 80.8753 131.878 78.7383 145.055L75.7817 163.287Z" fill="url(#paint18_linear_1_6)"/>
<path d="M43.7316 120.838H37.7131L31.6871 161.644C29.2232 184.923 50.0375 201.629 79.3413 189.031C46.6255 189.77 53.1265 163.533 57.2751 136.071C58.5148 127.865 52.0306 120.838 43.7316 120.838Z" fill="url(#paint19_linear_1_6)"/>
<path d="M277.768 159.716C279.314 138.53 295.186 132.107 307.858 134.59C315.959 136.178 326 137.428 332.268 132.055C296.117 104.668 262.88 129.864 261.609 159.716C259.966 198.331 308.167 199.701 325.147 180.804C320.069 175.278 311.3 175.459 304.111 177.615C291.681 181.342 277.768 176.2 277.768 159.716Z" fill="url(#paint20_linear_1_6)"/>
<path d="M304.565 134.276C268.195 131.866 262.835 153.447 261.567 165.224C260.198 116.749 307.577 110.724 332.5 131.811C324.557 142.493 310.864 134.276 304.565 134.276Z" fill="url(#paint21_linear_1_6)"/>
<path d="M102.023 244.494L103.849 235.319H100.272L100.527 234.017H109.193L108.923 235.319H105.346L103.505 244.494H102.023ZM119.699 236.486C120.397 236.486 120.981 236.626 121.45 236.905C121.919 237.185 122.243 237.594 122.423 238.133C122.613 238.661 122.633 239.3 122.483 240.048L121.6 244.494H120.163L121.046 240.048C121.196 239.33 121.126 238.771 120.836 238.372C120.547 237.973 120.028 237.773 119.28 237.773C118.511 237.773 117.873 237.983 117.364 238.402C116.855 238.811 116.516 239.445 116.346 240.303L115.508 244.494H114.071L116.286 233.388H117.723L116.631 238.836L116.301 238.222C116.68 237.624 117.159 237.185 117.738 236.905C118.327 236.626 118.98 236.486 119.699 236.486ZM133.584 244.584C132.806 244.584 132.132 244.444 131.563 244.165C130.994 243.875 130.555 243.476 130.246 242.967C129.937 242.448 129.782 241.84 129.782 241.141C129.782 240.243 129.977 239.445 130.366 238.746C130.755 238.048 131.284 237.499 131.952 237.1C132.631 236.691 133.399 236.486 134.257 236.486C134.976 236.486 135.6 236.626 136.128 236.905C136.657 237.175 137.066 237.564 137.356 238.073C137.655 238.582 137.805 239.195 137.805 239.914C137.805 240.093 137.795 240.278 137.775 240.468C137.755 240.647 137.73 240.817 137.7 240.976H130.83L131.009 239.929H137.011L136.428 240.288C136.518 239.729 136.478 239.26 136.308 238.881C136.138 238.492 135.869 238.197 135.5 237.998C135.141 237.788 134.706 237.684 134.198 237.684C133.599 237.684 133.07 237.828 132.611 238.118C132.162 238.397 131.813 238.791 131.563 239.3C131.314 239.799 131.189 240.388 131.189 241.066C131.189 241.785 131.394 242.344 131.803 242.743C132.222 243.132 132.855 243.326 133.704 243.326C134.203 243.326 134.667 243.247 135.096 243.087C135.525 242.917 135.879 242.693 136.158 242.413L136.772 243.446C136.393 243.815 135.919 244.1 135.35 244.299C134.781 244.489 134.193 244.584 133.584 244.584ZM155.884 244.614C155.176 244.614 154.557 244.479 154.028 244.21C153.509 243.94 153.115 243.566 152.846 243.087L153.878 242.114C154.078 242.483 154.347 242.778 154.687 242.997C155.036 243.217 155.445 243.326 155.914 243.326C156.483 243.326 156.947 243.167 157.306 242.847C157.665 242.528 157.915 242.004 158.054 241.276L159.237 235.319H155.45L155.719 234.017H160.958L159.521 241.216C159.361 242.054 159.122 242.723 158.803 243.222C158.483 243.711 158.079 244.065 157.59 244.284C157.111 244.504 156.543 244.614 155.884 244.614ZM170.967 244.584C170.208 244.584 169.55 244.444 168.991 244.165C168.442 243.875 168.013 243.476 167.704 242.967C167.395 242.448 167.24 241.845 167.24 241.156C167.24 240.258 167.439 239.46 167.839 238.761C168.238 238.053 168.787 237.499 169.485 237.1C170.194 236.691 170.997 236.486 171.895 236.486C172.643 236.486 173.297 236.626 173.856 236.905C174.414 237.185 174.843 237.579 175.143 238.088C175.452 238.597 175.607 239.2 175.607 239.899C175.607 240.797 175.407 241.6 175.008 242.309C174.609 243.007 174.06 243.561 173.362 243.97C172.673 244.379 171.875 244.584 170.967 244.584ZM171.057 243.326C171.655 243.326 172.189 243.182 172.658 242.892C173.127 242.603 173.491 242.209 173.751 241.71C174.02 241.201 174.155 240.622 174.155 239.974C174.155 239.275 173.95 238.731 173.541 238.342C173.132 237.943 172.548 237.743 171.79 237.743C171.201 237.743 170.672 237.888 170.204 238.178C169.735 238.457 169.365 238.851 169.096 239.36C168.826 239.859 168.692 240.438 168.692 241.096C168.692 241.785 168.896 242.329 169.305 242.728C169.715 243.127 170.298 243.326 171.057 243.326ZM185.662 244.584C184.983 244.584 184.409 244.444 183.94 244.165C183.481 243.885 183.157 243.481 182.967 242.952C182.778 242.413 182.758 241.765 182.908 241.006L183.791 236.561H185.228L184.344 241.021C184.205 241.73 184.275 242.289 184.554 242.698C184.843 243.097 185.352 243.296 186.081 243.296C186.829 243.296 187.458 243.087 187.967 242.668C188.476 242.249 188.815 241.615 188.984 240.767L189.823 236.561H191.26L189.688 244.494H188.311L188.76 242.219L189.014 242.832C188.645 243.431 188.166 243.875 187.577 244.165C186.999 244.444 186.36 244.584 185.662 244.584ZM197.961 244.494L199.533 236.561H200.91L200.461 238.866L200.311 238.297C200.681 237.629 201.15 237.16 201.718 236.89C202.287 236.621 202.991 236.486 203.829 236.486L203.559 237.878C203.499 237.868 203.44 237.863 203.38 237.863C203.32 237.863 203.255 237.863 203.185 237.863C202.397 237.863 201.743 238.078 201.224 238.507C200.715 238.936 200.371 239.609 200.192 240.527L199.398 244.494H197.961ZM215.164 236.486C215.863 236.486 216.446 236.626 216.915 236.905C217.384 237.185 217.709 237.594 217.888 238.133C218.078 238.661 218.098 239.3 217.948 240.048L217.065 244.494H215.628L216.511 240.048C216.661 239.33 216.591 238.771 216.302 238.372C216.012 237.973 215.493 237.773 214.745 237.773C213.977 237.773 213.338 237.983 212.829 238.402C212.32 238.811 211.981 239.445 211.811 240.303L210.973 244.494H209.536L211.108 236.561H212.485L212.036 238.836L211.766 238.222C212.146 237.624 212.625 237.185 213.203 236.905C213.792 236.626 214.446 236.486 215.164 236.486ZM229.049 244.584C228.271 244.584 227.597 244.444 227.028 244.165C226.46 243.875 226.021 243.476 225.711 242.967C225.402 242.448 225.247 241.84 225.247 241.141C225.247 240.243 225.442 239.445 225.831 238.746C226.22 238.048 226.749 237.499 227.418 237.1C228.096 236.691 228.865 236.486 229.723 236.486C230.441 236.486 231.065 236.626 231.594 236.905C232.122 237.175 232.532 237.564 232.821 238.073C233.12 238.582 233.27 239.195 233.27 239.914C233.27 240.093 233.26 240.278 233.24 240.468C233.22 240.647 233.195 240.817 233.165 240.976H226.295L226.475 239.929H232.477L231.893 240.288C231.983 239.729 231.943 239.26 231.773 238.881C231.604 238.492 231.334 238.197 230.965 237.998C230.606 237.788 230.172 237.684 229.663 237.684C229.064 237.684 228.535 237.828 228.076 238.118C227.627 238.397 227.278 238.791 227.028 239.3C226.779 239.799 226.654 240.388 226.654 241.066C226.654 241.785 226.859 242.344 227.268 242.743C227.687 243.132 228.321 243.326 229.169 243.326C229.668 243.326 230.132 243.247 230.561 243.087C230.99 242.917 231.344 242.693 231.624 242.413L232.237 243.446C231.858 243.815 231.384 244.1 230.815 244.299C230.247 244.489 229.658 244.584 229.049 244.584ZM239.685 247.487C239.305 247.487 238.931 247.423 238.562 247.293C238.193 247.173 237.903 247.003 237.694 246.784L238.442 245.721C238.612 245.891 238.811 246.021 239.041 246.11C239.26 246.21 239.51 246.26 239.789 246.26C240.119 246.26 240.413 246.17 240.672 245.991C240.942 245.821 241.216 245.517 241.496 245.078L242.244 243.925L242.409 243.76L246.944 236.561H248.396L242.768 245.362C242.419 245.901 242.089 246.325 241.78 246.634C241.471 246.944 241.146 247.163 240.807 247.293C240.478 247.423 240.104 247.487 239.685 247.487ZM241.975 244.748L239.984 236.561H241.421L243.112 243.626L241.975 244.748ZM263.456 244.494L265.551 234.017H270.191C271.239 234.017 272.052 234.211 272.631 234.6C273.209 234.989 273.499 235.563 273.499 236.322C273.499 236.98 273.334 237.539 273.005 237.998C272.686 238.447 272.266 238.786 271.748 239.016C271.229 239.245 270.68 239.36 270.101 239.36L270.445 238.926C271.224 238.926 271.852 239.12 272.331 239.51C272.81 239.899 273.05 240.468 273.05 241.216C273.05 241.934 272.86 242.538 272.481 243.027C272.112 243.516 271.583 243.885 270.894 244.135C270.216 244.374 269.418 244.494 268.5 244.494H263.456ZM265.192 243.282H268.604C269.542 243.282 270.271 243.107 270.79 242.758C271.309 242.408 271.568 241.899 271.568 241.231C271.568 240.702 271.378 240.333 270.999 240.123C270.62 239.904 270.081 239.794 269.383 239.794H265.641L265.88 238.582H269.188C269.737 238.582 270.216 238.507 270.625 238.357C271.044 238.207 271.368 237.983 271.598 237.684C271.827 237.384 271.942 237.01 271.942 236.561C271.942 236.102 271.763 235.768 271.403 235.558C271.044 235.339 270.535 235.229 269.877 235.229H266.793L265.192 243.282ZM283.914 244.584C283.136 244.584 282.462 244.444 281.893 244.165C281.324 243.875 280.885 243.476 280.576 242.967C280.267 242.448 280.112 241.84 280.112 241.141C280.112 240.243 280.307 239.445 280.696 238.746C281.085 238.048 281.614 237.499 282.282 237.1C282.961 236.691 283.729 236.486 284.587 236.486C285.306 236.486 285.93 236.626 286.458 236.905C286.987 237.175 287.396 237.564 287.686 238.073C287.985 238.582 288.135 239.195 288.135 239.914C288.135 240.093 288.125 240.278 288.105 240.468C288.085 240.647 288.06 240.817 288.03 240.976H281.16L281.339 239.929H287.341L286.758 240.288C286.848 239.729 286.808 239.26 286.638 238.881C286.468 238.492 286.199 238.197 285.83 237.998C285.471 237.788 285.036 237.684 284.528 237.684C283.929 237.684 283.4 237.828 282.941 238.118C282.492 238.397 282.143 238.791 281.893 239.3C281.644 239.799 281.519 240.388 281.519 241.066C281.519 241.785 281.724 242.344 282.133 242.743C282.552 243.132 283.185 243.326 284.034 243.326C284.533 243.326 284.997 243.247 285.426 243.087C285.855 242.917 286.209 242.693 286.488 242.413L287.102 243.446C286.723 243.815 286.249 244.1 285.68 244.299C285.111 244.489 284.523 244.584 283.914 244.584ZM295.01 244.494L296.761 235.813C296.921 235.014 297.245 234.396 297.734 233.957C298.233 233.518 298.886 233.298 299.695 233.298C300.024 233.298 300.333 233.343 300.623 233.433C300.922 233.513 301.167 233.632 301.356 233.792L300.757 234.855C300.478 234.605 300.124 234.481 299.695 234.481C299.266 234.481 298.921 234.6 298.662 234.84C298.412 235.079 298.238 235.443 298.138 235.932L297.914 236.965L297.839 237.564L296.447 244.494H295.01ZM295.01 237.743L295.234 236.561H300.308L300.069 237.743H295.01ZM309.225 244.584C308.467 244.584 307.808 244.444 307.249 244.165C306.701 243.875 306.271 243.476 305.962 242.967C305.653 242.448 305.498 241.845 305.498 241.156C305.498 240.258 305.698 239.46 306.097 238.761C306.496 238.053 307.045 237.499 307.743 237.1C308.452 236.691 309.255 236.486 310.153 236.486C310.901 236.486 311.555 236.626 312.114 236.905C312.673 237.185 313.102 237.579 313.401 238.088C313.71 238.597 313.865 239.2 313.865 239.899C313.865 240.797 313.665 241.6 313.266 242.309C312.867 243.007 312.318 243.561 311.62 243.97C310.931 244.379 310.133 244.584 309.225 244.584ZM309.315 243.326C309.914 243.326 310.447 243.182 310.916 242.892C311.385 242.603 311.75 242.209 312.009 241.71C312.278 241.201 312.413 240.622 312.413 239.974C312.413 239.275 312.209 238.731 311.8 238.342C311.39 237.943 310.807 237.743 310.048 237.743C309.46 237.743 308.931 237.888 308.462 238.178C307.993 238.457 307.624 238.851 307.354 239.36C307.085 239.859 306.95 240.438 306.95 241.096C306.95 241.785 307.155 242.329 307.564 242.728C307.973 243.127 308.557 243.326 309.315 243.326ZM320.552 244.494L322.124 236.561H323.501L323.052 238.866L322.902 238.297C323.271 237.629 323.74 237.16 324.309 236.89C324.878 236.621 325.581 236.486 326.419 236.486L326.15 237.878C326.09 237.868 326.03 237.863 325.97 237.863C325.911 237.863 325.846 237.863 325.776 237.863C324.988 237.863 324.334 238.078 323.815 238.507C323.306 238.936 322.962 239.609 322.782 240.527L321.989 244.494H320.552ZM335.841 244.584C335.062 244.584 334.389 244.444 333.82 244.165C333.251 243.875 332.812 243.476 332.503 242.967C332.194 242.448 332.039 241.84 332.039 241.141C332.039 240.243 332.233 239.445 332.623 238.746C333.012 238.048 333.541 237.499 334.209 237.1C334.888 236.691 335.656 236.486 336.514 236.486C337.233 236.486 337.856 236.626 338.385 236.905C338.914 237.175 339.323 237.564 339.613 238.073C339.912 238.582 340.062 239.195 340.062 239.914C340.062 240.093 340.052 240.278 340.032 240.468C340.012 240.647 339.987 240.817 339.957 240.976H333.087L333.266 239.929H339.268L338.685 240.288C338.774 239.729 338.734 239.26 338.565 238.881C338.395 238.492 338.126 238.197 337.757 237.998C337.397 237.788 336.963 237.684 336.454 237.684C335.856 237.684 335.327 237.828 334.868 238.118C334.419 238.397 334.069 238.791 333.82 239.3C333.571 239.799 333.446 240.388 333.446 241.066C333.446 241.785 333.65 242.344 334.06 242.743C334.479 243.132 335.112 243.326 335.96 243.326C336.459 243.326 336.923 243.247 337.352 243.087C337.781 242.917 338.136 242.693 338.415 242.413L339.029 243.446C338.65 243.815 338.176 244.1 337.607 244.299C337.038 244.489 336.449 244.584 335.841 244.584ZM359.727 244.614C359.198 244.614 358.68 244.559 358.171 244.449C357.672 244.329 357.213 244.175 356.794 243.985C356.385 243.795 356.055 243.581 355.806 243.341L356.464 242.144C356.734 242.383 357.048 242.593 357.407 242.773C357.777 242.952 358.166 243.092 358.575 243.192C358.994 243.291 359.423 243.341 359.862 243.341C360.421 243.341 360.915 243.272 361.344 243.132C361.773 242.992 362.102 242.793 362.332 242.533C362.571 242.264 362.691 241.939 362.691 241.56C362.691 241.251 362.591 240.996 362.392 240.797C362.192 240.597 361.933 240.438 361.613 240.318C361.304 240.188 360.955 240.073 360.566 239.974C360.186 239.864 359.802 239.744 359.413 239.614C359.034 239.475 358.685 239.305 358.365 239.106C358.056 238.906 357.801 238.652 357.602 238.342C357.412 238.023 357.318 237.624 357.318 237.145C357.318 236.476 357.502 235.902 357.871 235.423C358.241 234.935 358.749 234.56 359.398 234.301C360.057 234.031 360.815 233.897 361.673 233.897C362.322 233.897 362.94 233.972 363.529 234.121C364.118 234.271 364.622 234.49 365.041 234.78L364.442 236.007C364.053 235.728 363.614 235.518 363.125 235.379C362.636 235.239 362.127 235.169 361.598 235.169C361.03 235.169 360.536 235.244 360.116 235.394C359.697 235.543 359.373 235.758 359.144 236.037C358.914 236.307 358.794 236.626 358.784 236.995C358.784 237.314 358.879 237.574 359.069 237.773C359.258 237.973 359.513 238.138 359.832 238.267C360.151 238.397 360.501 238.522 360.88 238.642C361.269 238.751 361.653 238.871 362.032 239.001C362.412 239.12 362.761 239.28 363.08 239.48C363.409 239.669 363.669 239.914 363.858 240.213C364.058 240.512 364.158 240.892 364.158 241.351C364.158 242.019 363.968 242.603 363.589 243.102C363.22 243.591 362.701 243.965 362.032 244.224C361.374 244.484 360.605 244.614 359.727 244.614ZM373.858 244.584C373.379 244.584 372.965 244.479 372.616 244.269C372.277 244.06 372.032 243.76 371.882 243.371C371.743 242.982 371.723 242.523 371.823 241.994L373.26 234.825H374.696L373.26 241.964C373.19 242.393 373.23 242.738 373.379 242.997C373.539 243.247 373.833 243.371 374.262 243.371C374.462 243.371 374.661 243.341 374.861 243.282C375.061 243.212 375.24 243.117 375.4 242.997L375.699 244.09C375.43 244.279 375.13 244.409 374.801 244.479C374.482 244.549 374.168 244.584 373.858 244.584ZM371.329 237.743L371.553 236.561H376.627L376.388 237.743H371.329ZM386.094 244.584C385.426 244.584 384.827 244.449 384.298 244.18C383.769 243.9 383.35 243.506 383.041 242.997C382.741 242.488 382.592 241.875 382.592 241.156C382.592 240.478 382.701 239.854 382.921 239.285C383.15 238.716 383.465 238.222 383.864 237.803C384.273 237.384 384.752 237.06 385.301 236.83C385.85 236.601 386.443 236.486 387.082 236.486C387.77 236.486 388.354 236.606 388.833 236.845C389.312 237.085 389.681 237.439 389.941 237.908C390.2 238.367 390.33 238.931 390.33 239.599C390.33 240.577 390.16 241.445 389.821 242.204C389.482 242.952 388.993 243.536 388.354 243.955C387.726 244.374 386.972 244.584 386.094 244.584ZM386.408 243.326C387.007 243.326 387.541 243.182 388.01 242.892C388.479 242.603 388.843 242.209 389.103 241.71C389.372 241.201 389.507 240.622 389.507 239.974C389.507 239.275 389.302 238.731 388.893 238.342C388.484 237.943 387.9 237.743 387.142 237.743C386.553 237.743 386.024 237.888 385.555 238.178C385.086 238.457 384.717 238.851 384.448 239.36C384.178 239.859 384.044 240.438 384.044 241.096C384.044 241.785 384.248 242.329 384.657 242.728C385.066 243.127 385.65 243.326 386.408 243.326ZM388.698 244.494L389.118 242.443L389.597 240.602L389.791 238.716L390.21 236.561H391.647L390.075 244.494H388.698ZM398.347 244.494L399.919 236.561H401.296L400.847 238.866L400.697 238.297C401.066 237.629 401.535 237.16 402.104 236.89C402.673 236.621 403.376 236.486 404.215 236.486L403.945 237.878C403.885 237.868 403.825 237.863 403.766 237.863C403.706 237.863 403.641 237.863 403.571 237.863C402.783 237.863 402.129 238.078 401.61 238.507C401.101 238.936 400.757 239.609 400.577 240.527L399.784 244.494H398.347ZM412.968 244.584C412.489 244.584 412.075 244.479 411.725 244.269C411.386 244.06 411.142 243.76 410.992 243.371C410.852 242.982 410.832 242.523 410.932 241.994L412.369 234.825H413.806L412.369 241.964C412.299 242.393 412.339 242.738 412.489 242.997C412.648 243.247 412.943 243.371 413.372 243.371C413.571 243.371 413.771 243.341 413.971 243.282C414.17 243.212 414.35 243.117 414.509 242.997L414.809 244.09C414.539 244.279 414.24 244.409 413.911 244.479C413.591 244.549 413.277 244.584 412.968 244.584ZM410.438 237.743L410.663 236.561H415.737L415.497 237.743H410.438ZM421.979 244.494L423.551 236.561H424.988L423.416 244.494H421.979ZM424.688 235.034C424.419 235.034 424.199 234.949 424.03 234.78C423.87 234.61 423.79 234.406 423.79 234.166C423.79 233.887 423.885 233.652 424.075 233.463C424.264 233.263 424.514 233.163 424.823 233.163C425.083 233.163 425.297 233.248 425.467 233.418C425.646 233.577 425.736 233.772 425.736 234.002C425.736 234.311 425.641 234.56 425.452 234.75C425.262 234.94 425.008 235.034 424.688 235.034ZM437.326 236.486C438.024 236.486 438.608 236.626 439.077 236.905C439.546 237.185 439.87 237.594 440.05 238.133C440.239 238.661 440.259 239.3 440.11 240.048L439.226 244.494H437.79L438.673 240.048C438.822 239.33 438.753 238.771 438.463 238.372C438.174 237.973 437.655 237.773 436.906 237.773C436.138 237.773 435.5 237.983 434.991 238.402C434.482 238.811 434.142 239.445 433.973 240.303L433.135 244.494H431.698L433.269 236.561H434.646L434.197 238.836L433.928 238.222C434.307 237.624 434.786 237.185 435.365 236.905C435.954 236.626 436.607 236.486 437.326 236.486ZM450.477 247.487C449.729 247.487 449.045 247.388 448.427 247.188C447.808 246.998 447.284 246.724 446.855 246.365L447.648 245.257C447.958 245.547 448.367 245.776 448.876 245.946C449.394 246.125 449.963 246.215 450.582 246.215C451.52 246.215 452.238 246.001 452.737 245.572C453.236 245.152 453.57 244.509 453.74 243.641L454.114 241.8L454.563 240.318L454.788 238.731L455.222 236.561H456.584L455.222 243.416C454.933 244.853 454.399 245.891 453.62 246.53C452.842 247.168 451.794 247.487 450.477 247.487ZM450.986 244.165C450.298 244.165 449.684 244.035 449.145 243.775C448.616 243.516 448.202 243.147 447.903 242.668C447.603 242.179 447.454 241.6 447.454 240.932C447.454 240.293 447.563 239.709 447.783 239.18C448.012 238.642 448.327 238.173 448.726 237.773C449.125 237.364 449.599 237.05 450.148 236.83C450.707 236.601 451.315 236.486 451.974 236.486C452.573 236.486 453.116 236.591 453.605 236.801C454.104 237.01 454.498 237.334 454.788 237.773C455.087 238.202 455.237 238.761 455.237 239.45C455.247 240.328 455.082 241.126 454.743 241.845C454.404 242.553 453.915 243.117 453.276 243.536C452.647 243.955 451.884 244.165 450.986 244.165ZM451.27 242.907C451.879 242.907 452.413 242.773 452.872 242.503C453.341 242.234 453.71 241.865 453.98 241.396C454.249 240.927 454.384 240.393 454.384 239.794C454.384 239.155 454.174 238.656 453.755 238.297C453.346 237.928 452.767 237.743 452.019 237.743C451.41 237.743 450.871 237.878 450.402 238.148C449.943 238.407 449.579 238.771 449.31 239.24C449.04 239.709 448.906 240.243 448.906 240.842C448.906 241.49 449.115 241.999 449.534 242.368C449.953 242.728 450.532 242.907 451.27 242.907ZM477.673 244.614C476.705 244.614 475.907 244.419 475.278 244.03C474.65 243.641 474.211 243.102 473.961 242.413C473.712 241.715 473.682 240.902 473.871 239.974L475.054 234.017H476.551L475.353 239.959C475.253 240.488 475.228 240.962 475.278 241.381C475.328 241.79 475.458 242.139 475.668 242.428C475.877 242.708 476.161 242.922 476.521 243.072C476.88 243.212 477.314 243.282 477.823 243.282C478.452 243.282 478.99 243.162 479.439 242.922C479.898 242.683 480.278 242.319 480.577 241.83C480.876 241.341 481.101 240.727 481.25 239.989L482.448 234.017H483.915L482.702 240.093C482.403 241.59 481.829 242.718 480.981 243.476C480.143 244.234 479.04 244.614 477.673 244.614ZM494.796 244.584C494.118 244.584 493.534 244.464 493.045 244.224C492.566 243.975 492.197 243.621 491.938 243.162C491.678 242.693 491.548 242.129 491.548 241.47C491.548 240.473 491.718 239.604 492.057 238.866C492.397 238.118 492.881 237.534 493.509 237.115C494.148 236.696 494.906 236.486 495.784 236.486C496.463 236.486 497.062 236.621 497.58 236.89C498.109 237.16 498.523 237.554 498.823 238.073C499.132 238.582 499.287 239.19 499.287 239.899C499.287 240.577 499.172 241.201 498.943 241.77C498.723 242.339 498.409 242.832 498 243.252C497.6 243.671 497.126 244 496.578 244.239C496.029 244.469 495.435 244.584 494.796 244.584ZM489.648 247.398L491.803 236.561H493.18L492.761 238.612L492.297 240.453L492.087 242.339L491.084 247.398H489.648ZM494.737 243.326C495.335 243.326 495.864 243.182 496.323 242.892C496.792 242.603 497.161 242.209 497.431 241.71C497.7 241.201 497.835 240.622 497.835 239.974C497.835 239.275 497.63 238.731 497.221 238.342C496.812 237.943 496.228 237.743 495.47 237.743C494.881 237.743 494.347 237.888 493.868 238.178C493.399 238.457 493.03 238.851 492.761 239.36C492.501 239.859 492.372 240.438 492.372 241.096C492.372 241.785 492.576 242.329 492.985 242.728C493.395 243.127 493.978 243.326 494.737 243.326Z" fill="white"/>
<defs>
<filter id="filter0_d_1_6" x="23.9873" y="105.322" width="577.013" height="115.689" filterUnits="userSpaceOnUse" color-interpolation-filters="sRGB">
<feFlood flood-opacity="0" result="BackgroundImageFix"/>
<feColorMatrix in="SourceAlpha" type="matrix" values="0 0 0 0 0 0 0 0 0 0 0 0 0 0 0 0 0 0 127 0" result="hardAlpha"/>
<feOffset dy="6.65231"/>
<feGaussianBlur stdDeviation="9.97846"/>
<feComposite in2="hardAlpha" operator="out"/>
<feColorMatrix type="matrix" values="0 0 0 0 0 0 0 0 0 0 0 0 0 0 0 0 0 0 0.4 0"/>
<feBlend mode="normal" in2="BackgroundImageFix" result="effect1_dropShadow_1_6"/>
<feBlend mode="normal" in="SourceGraphic" in2="effect1_dropShadow_1_6" result="shape"/>
</filter>
<filter id="filter1_d_1_6" x="0.211716" y="105.322" width="577.014" height="115.689" filterUnits="userSpaceOnUse" color-interpolation-filters="sRGB">
<feFlood flood-opacity="0" result="BackgroundImageFix"/>
<feColorMatrix in="SourceAlpha" type="matrix" values="0 0 0 0 0 0 0 0 0 0 0 0 0 0 0 0 0 0 127 0" result="hardAlpha"/>
<feOffset dy="6.65231"/>
<feGaussianBlur stdDeviation="9.97846"/>
<feComposite in2="hardAlpha" operator="out"/>
<feColorMatrix type="matrix" values="0 0 0 0 0 0 0 0 0 0 0 0 0 0 0 0 0 0 0.4 0"/>
<feBlend mode="normal" in2="BackgroundImageFix" result="effect1_dropShadow_1_6"/>
<feBlend mode="normal" in="SourceGraphic" in2="effect1_dropShadow_1_6" result="shape"/>
</filter>
<linearGradient id="paint0_linear_1_6" x1="298.431" y1="40.2919" x2="287.243" y2="221.397" gradientUnits="userSpaceOnUse">
<stop stop-color="#959595"/>
<stop offset="1" stop-color="#767676" stop-opacity="0"/>
</linearGradient>
<linearGradient id="paint1_linear_1_6" x1="437.752" y1="39.2128" x2="426.564" y2="220.318" gradientUnits="userSpaceOnUse">
<stop stop-color="#959595"/>
<stop offset="1" stop-color="#767676" stop-opacity="0"/>
</linearGradient>
<linearGradient id="paint2_linear_1_6" x1="330.03" y1="38.6288" x2="318.842" y2="219.734" gradientUnits="userSpaceOnUse">
<stop stop-color="#959595"/>
<stop offset="1" stop-color="#767676" stop-opacity="0"/>
</linearGradient>
<linearGradient id="paint3_linear_1_6" x1="469.35" y1="37.5497" x2="458.162" y2="218.655" gradientUnits="userSpaceOnUse">
<stop stop-color="#959595"/>
<stop offset="1" stop-color="#767676" stop-opacity="0"/>
</linearGradient>
<linearGradient id="paint4_linear_1_6" x1="225.938" y1="74.3253" x2="345.328" y2="245.984" gradientUnits="userSpaceOnUse">
<stop stop-color="#892BFF"/>
<stop offset="1" stop-color="#FF5CF8"/>
</linearGradient>
<linearGradient id="paint5_linear_1_6" x1="279.23" y1="-6.06825" x2="420.937" y2="229.388" gradientUnits="userSpaceOnUse">
<stop stop-color="#6A2BFF"/>
<stop offset="0.92329" stop-color="#FF5CF8"/>
</linearGradient>
<linearGradient id="paint6_linear_1_6" x1="225.938" y1="74.3253" x2="345.328" y2="245.984" gradientUnits="userSpaceOnUse">
<stop stop-color="#892BFF"/>
<stop offset="1" stop-color="#FF5CF8"/>
</linearGradient>
<linearGradient id="paint7_linear_1_6" x1="279.23" y1="-6.06825" x2="420.937" y2="229.388" gradientUnits="userSpaceOnUse">
<stop stop-color="#6A2BFF"/>
<stop offset="0.92329" stop-color="#FF5CF8"/>
</linearGradient>
<linearGradient id="paint8_linear_1_6" x1="225.938" y1="74.3253" x2="345.328" y2="245.984" gradientUnits="userSpaceOnUse">
<stop stop-color="#892BFF"/>
<stop offset="1" stop-color="#FF5CF8"/>
</linearGradient>
<linearGradient id="paint9_linear_1_6" x1="279.23" y1="-6.06825" x2="420.937" y2="229.388" gradientUnits="userSpaceOnUse">
<stop stop-color="#6A2BFF"/>
<stop offset="0.92329" stop-color="#FF5CF8"/>
</linearGradient>
<linearGradient id="paint10_linear_1_6" x1="112.006" y1="131.233" x2="164.588" y2="174.504" gradientUnits="userSpaceOnUse">
<stop stop-color="#BE33B5"/>
<stop offset="1" stop-color="#FF5C5C"/>
</linearGradient>
<linearGradient id="paint11_linear_1_6" x1="204.025" y1="147.277" x2="238.533" y2="193.834" gradientUnits="userSpaceOnUse">
<stop stop-color="#AE763F"/>
<stop offset="1" stop-color="#FF9141"/>
</linearGradient>
<linearGradient id="paint12_linear_1_6" x1="243.736" y1="126.189" x2="221.614" y2="166.174" gradientUnits="userSpaceOnUse">
<stop stop-color="#F75767"/>
<stop offset="1" stop-color="#FFB257"/>
</linearGradient>
<linearGradient id="paint13_linear_1_6" x1="512.675" y1="117.551" x2="548.826" y2="190.4" gradientUnits="userSpaceOnUse">
<stop stop-color="#74FDEB"/>
<stop offset="0.516512" stop-color="#1D93FF"/>
<stop offset="1" stop-color="#9122FF"/>
</linearGradient>
<linearGradient id="paint14_linear_1_6" x1="480.359" y1="188.209" x2="448.864" y2="181.089" gradientUnits="userSpaceOnUse">
<stop stop-color="#76FFEF"/>
<stop offset="1" stop-color="#2BB774"/>
</linearGradient>
<linearGradient id="paint15_linear_1_6" x1="435.171" y1="133.709" x2="448.316" y2="190.4" gradientUnits="userSpaceOnUse">
<stop stop-color="#ABB817"/>
<stop offset="1" stop-color="#37D982"/>
</linearGradient>
<linearGradient id="paint16_linear_1_6" x1="366.157" y1="158.905" x2="408.058" y2="172.051" gradientUnits="userSpaceOnUse">
<stop stop-color="#867413"/>
<stop offset="1" stop-color="#ABB817"/>
</linearGradient>
<linearGradient id="paint17_linear_1_6" x1="352.737" y1="171.229" x2="398.199" y2="120.016" gradientUnits="userSpaceOnUse">
<stop stop-color="#FBB429"/>
<stop offset="1" stop-color="#EEE627"/>
</linearGradient>
<linearGradient id="paint18_linear_1_6" x1="77.9524" y1="120.29" x2="77.9524" y2="190.939" gradientUnits="userSpaceOnUse">
<stop stop-color="#FF39B0"/>
<stop offset="1" stop-color="#5329BC"/>
</linearGradient>
<linearGradient id="paint19_linear_1_6" x1="53.227" y1="120.838" x2="53.227" y2="193.546" gradientUnits="userSpaceOnUse">
<stop stop-color="#B352FF"/>
<stop offset="1" stop-color="#6B37FF"/>
</linearGradient>
<linearGradient id="paint20_linear_1_6" x1="275.536" y1="136.468" x2="302.649" y2="191.515" gradientUnits="userSpaceOnUse">
<stop offset="0.0001" stop-color="#A3851D"/>
<stop offset="1" stop-color="#FFD029"/>
</linearGradient>
<linearGradient id="paint21_linear_1_6" x1="323.462" y1="130.716" x2="274.439" y2="145.231" gradientUnits="userSpaceOnUse">
<stop stop-color="#F48D41"/>
<stop offset="1" stop-color="#F4E241"/>
</linearGradient>
</defs>
</svg>
