<svg width="380" height="28" viewBox="0 0 380 28" fill="none" xmlns="http://www.w3.org/2000/svg">
<path d="M6.46825 3.02011C3.46139 3.15996 2.65723 3.15996 0.139854 3.125L0 3.33478C0.209781 7.11084 0.314672 8.89398 0.314672 17.8097C0.314672 21.9354 0.244744 24.0681 0.10489 27.7043L0.279708 27.9141C2.90197 27.8092 3.60124 27.8092 6.50321 27.8092L6.71299 27.5994C6.53817 24.3828 6.46825 22.7745 6.46825 17.7048C6.46825 12.8798 6.53817 8.05485 6.64306 3.22989L6.46825 3.02011Z" fill="white"/>
<path d="M27.7596 23.0892C23.634 23.2989 22.655 23.3339 18.1796 23.3339L18.1097 17.2153H26.2912L26.5359 17.0055L26.7457 13.0546L26.5709 12.8449L18.1097 12.9847V7.42551C22.0606 7.42551 22.8648 7.42551 27.0953 7.5304L27.2702 7.32062L27.5149 3.26486L27.3401 3.125H11.9911L11.7813 3.33478C11.9911 6.72624 12.061 8.01989 12.061 17.3901C12.061 21.7955 11.9911 23.9982 11.8862 27.6694L12.061 27.8092H27.445L27.7247 27.5994L27.9694 23.3339L27.7596 23.0892Z" fill="white"/>
<path d="M47.3925 23.0892C43.2668 23.2989 42.2878 23.3339 37.8125 23.3339L37.7425 17.2153H45.924L46.1687 17.0055L46.3785 13.0546L46.2037 12.8449L37.7425 12.9847V7.42551C41.6934 7.42551 42.4976 7.42551 46.7282 7.5304L46.903 7.32062L47.1477 3.26486L46.9729 3.125H31.6239L31.4141 3.33478C31.6239 6.72624 31.6939 8.01989 31.6939 17.3901C31.6939 21.7955 31.6239 23.9982 31.519 27.6694L31.6939 27.8092H47.0778L47.3575 27.5994L47.6022 23.3339L47.3925 23.0892Z" fill="white"/>
<path d="M67.0253 23.0892C62.8996 23.2989 61.9206 23.3339 57.4453 23.3339L57.3754 17.2153H65.5568L65.8016 17.0055L66.0114 13.0546L65.8365 12.8449L57.3754 12.9847V7.42551C61.3262 7.42551 62.1304 7.42551 66.361 7.5304L66.5358 7.32062L66.7805 3.26486L66.6057 3.125H51.2568L51.047 3.33478C51.2568 6.72624 51.3267 8.01989 51.3267 17.3901C51.3267 21.7955 51.2568 23.9982 51.1519 27.6694L51.3267 27.8092H66.7106L66.9903 27.5994L67.2351 23.3339L67.0253 23.0892Z" fill="white"/>
<path d="M106.847 3.06519C104.471 3.13407 104.161 3.16851 101.647 3.16851L101.44 3.40959C100.923 5.30381 100.854 5.47601 99.4769 9.95326L95.103 24.3149L91.3489 10.401C90.6601 8.05904 90.0747 6.0615 89.4547 3.30627L89.2136 3.06519C87.0439 3.13407 86.424 3.16851 83.9098 3.16851L83.7032 3.40959C83.7032 6.44035 83.6688 6.81919 83.3243 12.9496C83.0833 17.048 82.9455 21.1464 82.6011 25.2448C82.5322 25.9336 82.4633 26.6568 82.3945 27.3456L82.5667 27.5867C84.0132 27.4834 84.2198 27.4834 85.8729 27.4834L86.0451 27.2423C86.0796 24.556 86.0796 23.6605 86.2173 19.5966L86.4584 13.4317C86.5617 9.9877 86.5962 9.23001 86.6306 5.78598C87.1128 7.99016 87.2506 8.54121 88.6282 13.4662L90.0058 18.2878C90.3502 19.4244 91.8656 24.556 92.1411 25.6236C92.3133 26.1747 92.4855 26.7601 92.6577 27.3456L92.8643 27.5867C94.8274 27.4834 94.9996 27.4834 96.8594 27.4834L97.066 27.2423C97.8582 24.5904 98.2715 23.2472 99.5458 19.4244L101.13 14.4305C102.577 9.60885 103.093 7.78352 103.644 5.78598C103.644 7.09471 103.679 12.3641 103.679 14.8093L103.747 18.46C103.851 22.2485 103.885 23.4539 103.851 27.3456L104.057 27.5867C105.848 27.5178 106.055 27.4834 107.777 27.4834L107.949 27.2423C107.501 19.2522 107.226 11.2964 107.054 3.30627L106.847 3.06519Z" fill="white"/>
<path d="M125.566 16.9791C125.566 15.5326 125.566 13.6384 125.325 12.674C124.602 9.9877 122.122 9.12669 119.573 9.12669C117.541 9.12669 115.544 9.57442 113.615 10.2632L113.409 10.4699C113.374 11.1931 113.374 11.3998 113.305 12.984L113.581 13.1562C115.027 12.5363 116.577 11.8475 118.816 11.8475C120.538 11.8475 121.33 12.5018 121.674 13.1218C121.984 13.6728 121.984 14.3272 121.984 15.2571L121.399 15.326C115.199 16.0492 111.342 17.5301 111.342 22.1451C111.342 25.5547 113.753 27.8967 117.197 27.8967C119.814 27.8967 121.364 26.6568 122.019 26.1402L121.984 27.3801L122.122 27.5867C123.706 27.5178 123.982 27.4834 125.6 27.449L125.773 27.2768C125.6 25.0381 125.566 24.6593 125.566 20.3887V16.9791ZM122.019 17.8057V23.5572C121.64 23.9016 120.4 25.0726 118.265 25.0726C114.993 25.0726 114.993 22.1107 114.993 21.9385C114.993 18.8733 118.23 18.3911 121.709 17.8745L122.019 17.8057Z" fill="white"/>
<path d="M134.296 27.2423C134.124 23.9705 134.021 21.353 134.021 13.8106C134.021 9.29889 134.021 4.75277 134.262 0.241083L134.055 0C132.333 0.378843 131.989 0.447725 130.301 0.723248L130.129 0.92989C130.473 5.33825 130.473 10.4354 130.473 15.1882C130.473 21.8007 130.37 24.9004 130.301 27.3456L130.473 27.5867C132.092 27.5178 132.436 27.4834 134.089 27.449L134.296 27.2423Z" fill="white"/>
<path d="M152.136 16.9791C152.136 15.5326 152.136 13.6384 151.895 12.674C151.172 9.9877 148.692 9.12669 146.144 9.12669C144.112 9.12669 142.114 9.57442 140.185 10.2632L139.979 10.4699C139.944 11.1931 139.944 11.3998 139.875 12.984L140.151 13.1562C141.597 12.5363 143.147 11.8475 145.386 11.8475C147.108 11.8475 147.9 12.5018 148.244 13.1218C148.554 13.6728 148.554 14.3272 148.554 15.2571L147.969 15.326C141.77 16.0492 137.912 17.5301 137.912 22.1451C137.912 25.5547 140.323 27.8967 143.767 27.8967C146.385 27.8967 147.934 26.6568 148.589 26.1402L148.554 27.3801L148.692 27.5867C150.276 27.5178 150.552 27.4834 152.171 27.449L152.343 27.2768C152.171 25.0381 152.136 24.6593 152.136 20.3887V16.9791ZM148.589 17.8057V23.5572C148.21 23.9016 146.97 25.0726 144.835 25.0726C141.563 25.0726 141.563 22.1107 141.563 21.9385C141.563 18.8733 144.8 18.3911 148.279 17.8745L148.589 17.8057Z" fill="white"/>
<path d="M160.625 27.5523C163.587 27.6212 168.064 27.69 170.957 24.1771C172.92 21.8352 173.093 19.1488 173.093 17.7712C173.093 12.3641 169.752 9.12669 165.447 9.12669C162.864 9.12669 161.28 10.2288 160.625 10.6765L160.763 0.241083L160.522 0L156.906 0.723248L156.733 0.92989C157.078 4.37392 157.078 6.88807 157.112 12.9496V18.0812C157.112 22.8684 157.043 25.1759 156.975 27.3112L157.181 27.5178C158.421 27.5178 158.731 27.5178 159.902 27.5523H160.625ZM160.729 24.8659C160.66 19.5966 160.625 18.4256 160.66 13.2595C161.452 12.7429 162.692 11.9508 164.379 11.9508C165.585 11.9508 166.824 12.3985 167.754 13.3629C168.753 14.3616 169.339 15.567 169.339 17.8057C169.339 19.9754 168.65 21.8352 167.617 22.9373C165.688 25.0037 162.76 24.9348 161.693 24.9004L160.729 24.8659Z" fill="white"/>
<path d="M190.175 16.9791C190.175 15.5326 190.175 13.6384 189.934 12.674C189.211 9.9877 186.731 9.12669 184.183 9.12669C182.151 9.12669 180.153 9.57442 178.224 10.2632L178.018 10.4699C177.983 11.1931 177.983 11.3998 177.914 12.984L178.19 13.1562C179.637 12.5363 181.186 11.8475 183.425 11.8475C185.147 11.8475 185.939 12.5018 186.283 13.1218C186.593 13.6728 186.593 14.3272 186.593 15.2571L186.008 15.326C179.809 16.0492 175.951 17.5301 175.951 22.1451C175.951 25.5547 178.362 27.8967 181.806 27.8967C184.424 27.8967 185.974 26.6568 186.628 26.1402L186.593 27.3801L186.731 27.5867C188.315 27.5178 188.591 27.4834 190.21 27.449L190.382 27.2768C190.21 25.0381 190.175 24.6593 190.175 20.3887V16.9791ZM186.628 17.8057V23.5572C186.249 23.9016 185.009 25.0726 182.874 25.0726C179.602 25.0726 179.602 22.1107 179.602 21.9385C179.602 18.8733 182.839 18.3911 186.318 17.8745L186.628 17.8057Z" fill="white"/>
<path d="M203.245 12.984C203.486 11.4686 203.555 11.1242 203.899 9.4711L203.761 9.26445C203.486 9.19557 203.245 9.16113 202.797 9.16113C199.87 9.16113 199.009 11.3653 198.595 12.4674L198.768 9.53998L198.561 9.33333C197.114 9.60886 196.288 9.78106 194.979 10.0221L194.773 10.2632C194.979 12.2608 195.082 13.6728 195.082 19.1833C195.082 22.3862 195.048 24.7626 195.014 27.3801L195.186 27.5867C196.839 27.5178 197.218 27.4834 198.836 27.4834L199.009 27.2423C198.871 25.3137 198.768 23.2817 198.768 19.3899C198.768 15.8081 198.768 14.2927 200.18 13.294C200.49 13.0873 200.972 12.8462 201.626 12.8462C202.212 12.8462 202.659 13.0185 203.004 13.1562L203.245 12.984Z" fill="white"/>
<path d="M223.806 12.9496C221.739 12.0541 221.602 11.9852 221.154 11.7097C220.431 11.262 219.397 10.5387 219.397 8.98893C219.397 6.95695 221.188 5.61378 224.047 5.61378C226.63 5.61378 228.249 6.44035 229.729 7.19803L230.005 7.06027C230.108 5.82042 230.143 5.33825 230.281 4.02952L230.108 3.754C228.283 3.16851 226.63 2.65191 223.909 2.65191C221.119 2.65191 218.261 3.40959 216.677 5.68266C215.953 6.71587 215.609 8.0246 215.609 9.29889C215.609 13.5006 218.881 14.9816 221.326 16.1181L223.048 16.8758C225.287 17.7368 227.284 18.6667 227.284 21.0775C227.284 23.1439 225.803 24.9693 222.256 24.9693C219.053 24.9693 217.055 23.5228 216.194 22.9373L215.85 23.075C215.747 24.3838 215.712 25.0381 215.574 26.2435L215.712 26.4846C216.539 26.8979 218.881 28 222.531 28C228.524 28 231.383 24.5215 231.383 20.6642C231.383 16.2558 228.042 14.8093 225.528 13.7073L223.806 12.9496Z" fill="white"/>
<path d="M250.187 9.43665C248.602 9.53998 248.224 9.53998 246.639 9.57442L246.433 9.8155C246.639 12.0541 246.674 13.0185 246.674 17.8057C246.674 19.8032 246.674 21.3875 246.639 23.2472C245.813 23.9016 244.366 25.0381 242.334 25.0381C238.856 25.0381 238.787 21.9385 238.753 20.492C238.718 18.8389 238.753 18.1501 238.753 17.2202L238.89 9.67774L238.684 9.43665C237.065 9.57442 236.755 9.57442 235.136 9.60886L234.964 9.84994C235.067 11.7097 235.067 12.2608 235.136 17.1857V19.321C235.171 22.0074 235.171 24.9348 237.375 26.7257C238.477 27.5867 239.958 27.8967 241.301 27.8967C244.125 27.8967 245.951 26.4846 246.708 25.9336L246.674 27.3801L246.88 27.5867C248.465 27.5178 248.74 27.4834 250.393 27.449L250.531 27.2423C250.497 26.7601 250.462 26.278 250.462 25.7958C250.393 24.3149 250.29 21.7663 250.29 17.5301C250.29 14.7405 250.325 12.2952 250.393 9.67774L250.187 9.43665Z" fill="white"/>
<path d="M258.935 27.5523C261.897 27.6212 266.374 27.69 269.267 24.1771C271.23 21.8352 271.402 19.1488 271.402 17.7712C271.402 12.3641 268.062 9.12669 263.757 9.12669C261.174 9.12669 259.589 10.2288 258.935 10.6765L259.073 0.241083L258.832 0L255.215 0.723248L255.043 0.92989C255.388 4.37392 255.388 6.88807 255.422 12.9496V18.0812C255.422 22.8684 255.353 25.1759 255.284 27.3112L255.491 27.5178C256.731 27.5178 257.041 27.5178 258.212 27.5523H258.935ZM259.038 24.8659C258.969 19.5966 258.935 18.4256 258.969 13.2595C259.761 12.7429 261.001 11.9508 262.689 11.9508C263.894 11.9508 265.134 12.3985 266.064 13.3629C267.063 14.3616 267.648 15.567 267.648 17.8057C267.648 19.9754 266.959 21.8352 265.926 22.9373C263.998 25.0037 261.07 24.9348 260.003 24.9004L259.038 24.8659Z" fill="white"/>
<path d="M281.356 16.6347C279.22 15.9803 277.808 15.5326 277.808 14.0517C277.808 12.984 278.669 12.2608 279.703 11.9852C280.219 11.8475 280.701 11.813 281.184 11.813C283.422 11.813 284.765 12.6396 285.626 13.1907L285.936 13.0529C286.04 11.7442 286.074 11.6064 286.212 10.3321L286.04 10.091C285.42 9.84994 283.629 9.12669 281.08 9.12669C277.223 9.12669 274.123 10.8831 274.123 14.4305C274.123 17.9779 277.223 18.9766 278.635 19.4244L279.737 19.8032C281.838 20.492 283.319 21.0086 283.319 22.5929C283.319 23.6605 282.32 25.1759 279.599 25.1759C276.947 25.1759 275.432 24.0049 274.812 23.5228L274.468 23.6261C274.399 25.0037 274.399 25.1759 274.261 26.5191L274.433 26.829C274.605 26.8979 274.778 26.9668 274.95 27.0357C276.259 27.5523 277.808 27.8967 279.668 27.8967C280.908 27.8967 283.353 27.7934 285.179 26.2435C286.591 25.107 287.107 23.5572 287.107 22.1796C287.107 18.5289 283.973 17.4613 282.596 17.0135L281.356 16.6347Z" fill="white"/>
<path d="M304.38 23.1095C303.932 23.4883 303.175 24.1082 301.9 24.6248C300.936 24.9693 299.903 25.1415 298.904 25.1415C297.836 25.1415 295.873 24.9693 294.461 23.2817C293.29 21.8696 293.187 20.182 293.152 18.9766C298.801 18.9422 299.73 18.9422 305.103 18.9766L305.344 18.77C305.379 17.2546 305.448 13.845 303.484 11.5031C302.451 10.2632 300.557 9.12669 297.836 9.12669C293.325 9.12669 289.467 12.2608 289.467 18.6667C289.467 24.6593 293.015 27.8967 298.663 27.8967C301.728 27.8967 303.588 26.8979 304.173 26.5879L304.38 26.3469C304.449 25.0037 304.483 24.6593 304.655 23.2817L304.38 23.1095ZM301.797 16.3247C298.628 16.3592 297.32 16.3936 293.152 16.3592C293.497 12.9151 295.77 11.6064 297.699 11.6064C299.248 11.6064 300.764 12.3985 301.453 14.2927C301.728 15.0849 301.762 15.8426 301.797 16.3247Z" fill="white"/>
<path d="M321.703 23.2472C321.049 23.7638 319.602 24.9693 317.26 24.9693C314.574 24.9693 311.922 23.2817 311.922 18.5978C311.922 14.1894 314.436 11.9852 317.295 11.9852C318.672 11.9852 319.981 12.5018 321.118 13.3284L321.393 13.1907C321.462 12.1574 321.497 11.7097 321.634 10.4699L321.497 10.2288C320.601 9.84994 319.017 9.12669 316.778 9.12669C311.44 9.12669 308.134 13.2595 308.134 18.7355C308.134 24.1082 311.509 27.8622 316.709 27.8622C319.12 27.8622 320.463 27.1734 321.462 26.6913L321.703 26.4502C321.806 25.0381 321.841 24.8659 321.979 23.385L321.703 23.2472Z" fill="white"/>
<path d="M332.449 24.556C332.07 24.6937 331.519 24.8659 330.796 24.8659C329.074 24.8659 328.764 24.0738 328.764 21.5597C328.764 21.0775 328.764 19.1144 328.729 18.7011L328.798 12.2952C330.623 12.2952 330.83 12.3296 332.552 12.3641L332.724 12.1574C332.724 10.9865 332.759 10.6076 332.828 9.71218L332.655 9.50554C330.692 9.57442 330.279 9.57442 328.833 9.60886C328.833 7.09471 328.867 6.64699 328.97 4.37393L328.729 4.20172C327.145 4.68389 326.766 4.78721 325.216 5.16605L325.044 5.40713C325.079 6.0615 325.113 6.71587 325.147 7.37023C325.147 8.09348 325.147 8.85117 325.182 9.57442C324.045 9.60886 323.598 9.57442 322.84 9.57442L322.633 9.78106C322.633 10.8831 322.633 11.1587 322.564 12.2608L322.702 12.4674C323.942 12.433 323.976 12.3985 325.182 12.3985L325.113 19.9754C325.113 24.0394 325.113 24.8659 325.733 25.8647C326.801 27.6556 328.97 27.6556 329.797 27.6556C331.071 27.6556 331.657 27.5178 332.38 27.3456L332.552 27.139C332.587 26.1402 332.587 25.8991 332.69 24.7626L332.449 24.556Z" fill="white"/>
<path d="M339.56 27.2423C339.422 24.9004 339.353 24.0394 339.353 17.6335C339.353 13.1907 339.457 11.3309 339.56 9.53998L339.216 9.33333C337.494 9.71218 336.977 9.78106 335.496 10.0221L335.324 10.2632C335.565 12.2952 335.668 13.5351 335.668 20.1132C335.668 23.936 335.565 25.5203 335.462 27.3456L335.634 27.5867C337.321 27.4834 337.597 27.4834 339.388 27.449L339.56 27.2423ZM339.629 4.30504C339.594 2.78967 339.594 2.44526 339.629 1.03321L339.422 0.826568C337.7 0.998769 337.39 1.03321 335.599 1.17097L335.358 1.37761C335.393 2.06642 335.427 2.61747 335.427 3.23739C335.427 3.68512 335.427 4.16728 335.393 4.61501L335.599 4.82165C337.287 4.64945 337.666 4.61501 339.422 4.54613L339.629 4.30504Z" fill="white"/>
<path d="M360.362 18.2534C360.293 15.8426 359.845 13.4317 358.261 11.6064C356.746 9.88438 354.438 9.12669 352.096 9.12669C348.652 9.12669 346.655 10.5387 345.69 11.5375C343.383 13.845 343.314 17.2202 343.314 18.5289C343.314 19.6654 343.348 23.1784 345.69 25.5547C346.792 26.6913 348.756 27.8622 351.855 27.8622C354.266 27.8622 356.298 27.2768 357.813 25.7614C358.95 24.6248 359.673 23.2817 360.052 21.5941C360.293 20.5609 360.362 19.4244 360.362 18.2534ZM356.608 18.3911C356.642 19.1144 356.608 21.4219 355.816 22.9717C354.817 24.8659 353.164 25.2792 351.89 25.2792C351.201 25.2792 350.478 25.1415 349.858 24.8315C347.137 23.4539 347.102 19.9754 347.102 18.5978C347.102 17.1513 347.206 15.1538 348.136 13.7417C349.341 11.813 351.27 11.7442 351.924 11.7442C353.853 11.7442 354.955 12.6396 355.609 13.7073C356.47 15.2226 356.608 17.5301 356.608 18.3911Z" fill="white"/>
<path d="M379.752 27.2423C379.649 25.9336 379.614 24.3838 379.511 20.3542V16.3247C379.477 14.1894 379.442 13.1562 378.994 12.123C378.616 11.1931 377.892 10.401 376.997 9.88438C376.067 9.36777 374.999 9.23001 374.138 9.23001C371.108 9.23001 368.972 10.7454 368.077 11.3653L368.111 9.57442L367.87 9.33333C366.251 9.6433 365.941 9.71218 364.219 10.0221L364.013 10.2632C364.185 12.5707 364.426 15.4982 364.426 21.0086C364.426 23.5572 364.357 25.417 364.323 27.3456L364.495 27.5867C366.148 27.4834 366.424 27.4834 368.111 27.449L368.318 27.2423C368.077 23.2128 368.008 20.0787 368.042 14.0861C368.972 13.3629 370.557 12.1574 372.623 12.1574C373.105 12.1574 375.068 12.1574 375.723 14.7749C375.895 15.4982 375.929 15.8426 375.929 21.1464C375.929 22.8339 375.929 24.5215 375.895 26.2091C375.895 26.5879 375.86 26.9668 375.86 27.3456L376.101 27.5867C377.686 27.4834 377.892 27.4834 379.545 27.449L379.752 27.2423Z" fill="white"/>
</svg>
