<svg width="296" height="91" viewBox="0 0 296 91" fill="none" xmlns="http://www.w3.org/2000/svg">
<g filter="url(#filter0_d_1_79)">
<path d="M66.1117 29.9287L59.2532 65.7004C65.4931 66.2383 68.3082 61.0833 68.9357 58.4385C72.2978 40.5527 72.0288 37.0562 79.4252 37.0562C84.912 37.0562 85.6561 41.0906 85.3423 43.1078C84.912 48.5946 79.7838 49.5573 76.1977 49.2883C72.5398 49.6111 70.1909 53.8662 70.1461 56.0179H78.2149C89.7264 55.6951 92.7836 46.5091 93.1422 42.0264C93.1422 31.6714 85.3423 29.9287 80.9045 29.9287H66.1117Z" stroke="white" stroke-opacity="0.19" stroke-width="0.816636"/>
<path d="M127.254 40.8072L127.636 41.0438L127.835 40.6403L131.432 33.3347L131.602 32.9899L131.268 32.7996C128.042 30.9605 123.15 29.8622 118.284 29.8622C113.412 29.8622 109.155 30.8679 106.027 32.8073C102.597 34.9335 100.534 38.1797 100.534 42.3825C100.534 45.4264 101.738 47.4789 103.551 48.8926C105.341 50.2877 107.702 51.0444 110.003 51.5759C110.995 51.805 111.987 51.9947 112.924 52.1739C113.077 52.2032 113.229 52.2321 113.378 52.2609C114.452 52.4675 115.437 52.6658 116.275 52.9045C117.12 53.1449 117.776 53.4157 118.214 53.7477C118.636 54.0668 118.839 54.4249 118.839 54.8789C118.839 55.7319 118.429 56.4362 117.444 56.9525C116.43 57.484 114.823 57.803 112.503 57.803C111.079 57.803 109.617 57.6641 108.193 57.4065C103.789 56.6098 98.4581 57.8964 96.2782 61.9927L96.6386 62.1845L96.4023 62.5176C99.3885 64.6363 105.265 66.1816 111.411 66.1816C116.438 66.1816 120.876 65.1311 124.071 63.0472C127.282 60.9526 129.226 57.8176 129.226 53.7254C129.226 50.7272 128.024 48.7104 126.216 47.3216C124.433 45.9517 122.08 45.2074 119.789 44.6762C118.862 44.4613 117.934 44.2789 117.051 44.1055C116.84 44.0641 116.632 44.0233 116.428 43.9826C115.358 43.7702 114.378 43.5632 113.544 43.3131C112.704 43.0613 112.051 42.7769 111.614 42.4293C111.194 42.095 110.985 41.7147 110.985 41.2289C110.985 40.4774 111.39 39.75 112.383 39.1893C113.39 38.6206 114.981 38.2408 117.256 38.2408C120.421 38.2408 124.128 38.8735 127.254 40.8072Z" stroke="white" stroke-opacity="0.19" stroke-width="0.816636"/>
<path d="M116.945 52.7289C102.824 43.8532 110.624 38.743 114.389 38.2051C120.414 37.1293 125.686 39.3706 127.568 40.6257L131.199 33.0948C115.707 25.7791 102.528 32.5569 101.21 39.1465C98.9243 51.5186 110.355 50.5772 116.945 52.7289Z" stroke="white" stroke-opacity="0.19" stroke-width="0.816636"/>
<path d="M285.4 30.2808L285.502 29.7894H285H258.983H258.648L258.583 30.1177L254.146 52.3023C252.829 58.8883 257.866 65.033 264.582 65.033H272.224C276.221 65.033 279.669 62.2275 280.482 58.3141L280.082 58.2311V57.8228H261.805C262.861 53.6391 266.633 50.6721 270.99 50.6721H272.584C276.451 50.6721 279.779 47.9394 280.532 44.1464L280.131 44.0669V43.6586H264.658C265.657 39.7609 269.177 36.9996 273.242 36.9996H277.947C281.475 36.9996 284.519 34.5231 285.236 31.0687L285.4 30.2808Z" stroke="white" stroke-opacity="0.19" stroke-width="0.816636"/>
<path d="M218.346 64.5446L218.249 65.033H218.747H243.977V64.6247L244.377 64.7065C245.115 61.1003 242.359 57.7244 238.678 57.7244H235.07C231.693 57.7244 229.161 54.6338 229.825 51.323L232.666 37.1682C233.432 33.3519 230.514 29.7894 226.621 29.7894H225.632H225.298L225.232 30.1177L218.346 64.5446Z" stroke="white" stroke-opacity="0.19" stroke-width="0.816636"/>
<path d="M230.985 30.1978H225.605L218.747 64.6247H235.96C228.645 63.764 227.981 58.08 228.564 55.3455L233.002 33.0218C233.647 30.8702 231.926 30.2426 230.985 30.1978Z" stroke="white" stroke-opacity="0.19" stroke-width="0.816636"/>
<path d="M202.452 64.8467L202.522 65.1673H202.851H205.107C208.277 65.1673 210.608 62.1943 209.852 59.1152L204.311 36.5662C203.353 32.6658 199.855 29.9237 195.839 29.9237H194.49H194.268L194.147 30.1102L171.868 64.5371L171.46 65.1673H172.211H176.755C179.359 65.1673 181.774 63.8076 183.124 61.5812C184.552 59.2275 187.106 57.7901 189.859 57.7901H200.899L202.452 64.8467ZM194.083 50.9241H189.611L193.292 44.9009C194.568 42.8135 197.737 43.3468 198.259 45.7366C198.842 48.4024 196.811 50.9241 194.083 50.9241Z" stroke="white" stroke-opacity="0.19" stroke-width="0.816636"/>
<path d="M194.406 30.1978L171.948 65.0281H173.852C178.097 65.0281 182.035 62.8131 184.239 59.1851L193.599 43.7802C200.861 31.5426 202.744 32.215 202.744 32.215C201.737 30.0337 198.714 30.1978 196.312 30.1978H194.406Z" stroke="white" stroke-opacity="0.19" stroke-width="0.816636"/>
<path d="M44.4233 51.3111C41.8683 59.7834 32.7237 58.1696 32.7235 52.7904C30.249 64.5171 39.2235 65.566 44.02 64.6247C58.0059 60.9937 56.1232 40.2838 58.6783 30.1978C52.1624 30.9129 46.9244 35.8881 45.8751 42.3586L44.4233 51.3111Z" stroke="white" stroke-opacity="0.19" stroke-width="0.816636"/>
<path d="M28.6861 30.4668H25.7308L22.7718 50.5043C21.5619 61.9352 31.7825 70.1385 46.1718 63.9524C30.1071 64.3154 33.2994 51.4321 35.3365 37.9469C35.9452 33.9175 32.7612 30.4668 28.6861 30.4668Z" stroke="white" stroke-opacity="0.19" stroke-width="0.816636"/>
<path d="M143.607 49.5575C144.366 39.1546 152.16 36.0003 158.382 37.2199C162.36 37.9996 167.291 38.6131 170.369 35.975C152.617 22.5268 136.296 34.899 135.673 49.5575C134.866 68.5192 158.534 69.1916 166.872 59.9125C164.379 57.1991 160.072 57.2881 156.543 58.3466C150.439 60.1771 143.607 57.6521 143.607 49.5575Z" stroke="white" stroke-opacity="0.19" stroke-width="0.816636"/>
<path d="M156.766 37.0657C138.907 35.8823 136.275 46.4794 135.652 52.2621C134.98 28.4591 158.245 25.5005 170.483 35.8553C166.582 41.1003 159.859 37.0657 156.766 37.0657Z" stroke="white" stroke-opacity="0.19" stroke-width="0.816636"/>
</g>
<g filter="url(#filter1_d_1_79)">
<path d="M54.437 29.9287L47.5785 65.7004C53.8184 66.2383 56.6335 61.0833 57.2611 58.4385C60.6231 40.5527 60.3541 37.0562 67.7505 37.0562C73.2373 37.0562 73.9814 41.0906 73.6676 43.1078C73.2373 48.5946 68.1091 49.5573 64.523 49.2883C60.8651 49.6111 58.5162 53.8662 58.4714 56.0179H66.5402C78.0517 55.6951 81.1089 46.5091 81.4675 42.0264C81.4675 31.6714 73.6676 29.9287 69.2298 29.9287H54.437Z" stroke="white" stroke-opacity="0.19" stroke-width="0.816636"/>
<path d="M115.579 40.8072L115.962 41.0438L116.16 40.6403L119.757 33.3347L119.927 32.9899L119.593 32.7996C116.367 30.9605 111.475 29.8622 106.609 29.8622C101.738 29.8622 97.4805 30.8679 94.352 32.8073C90.9219 34.9335 88.859 38.1797 88.859 42.3825C88.859 45.4264 90.0629 47.4789 91.8765 48.8926C93.6662 50.2877 96.0279 51.0444 98.3281 51.5759C99.3199 51.805 100.312 51.9947 101.25 52.1739C101.403 52.2032 101.554 52.2321 101.704 52.2609C102.778 52.4675 103.762 52.6658 104.601 52.9045C105.445 53.1449 106.101 53.4157 106.54 53.7477C106.962 54.0668 107.164 54.4249 107.164 54.8789C107.164 55.7319 106.754 56.4362 105.769 56.9525C104.756 57.484 103.148 57.803 100.829 57.803C99.4041 57.803 97.9425 57.6641 96.5187 57.4065C92.1146 56.6098 86.7835 57.8964 84.6035 61.9927L84.964 62.1845L84.7277 62.5176C87.7139 64.6363 93.5906 66.1816 99.7367 66.1816C104.764 66.1816 109.201 65.1311 112.396 63.0472C115.608 60.9526 117.551 57.8176 117.551 53.7254C117.551 50.7272 116.349 48.7104 114.541 47.3216C112.758 45.9517 110.405 45.2074 108.115 44.6762C107.187 44.4613 106.259 44.2789 105.376 44.1055C105.166 44.0641 104.958 44.0233 104.753 43.9826C103.683 43.7702 102.703 43.5632 101.869 43.3131C101.03 43.0613 100.377 42.7769 99.9396 42.4293C99.5191 42.095 99.3101 41.7147 99.3101 41.2289C99.3101 40.4774 99.7158 39.75 100.708 39.1893C101.715 38.6206 103.306 38.2408 105.582 38.2408C108.746 38.2408 112.453 38.8735 115.579 40.8072Z" stroke="white" stroke-opacity="0.19" stroke-width="0.816636"/>
<path d="M105.271 52.7289C91.1501 43.8532 98.9498 38.743 102.715 38.2051C108.74 37.1293 114.012 39.3706 115.894 40.6257L119.525 33.0948C104.033 25.7791 90.8541 32.5569 89.5362 39.1465C87.2502 51.5186 98.6811 50.5772 105.271 52.7289Z" stroke="white" stroke-opacity="0.19" stroke-width="0.816636"/>
<path d="M273.725 30.2808L273.827 29.7894H273.325H247.308H246.974L246.908 30.1177L242.471 52.3023C241.154 58.8883 246.191 65.033 252.908 65.033H260.549C264.546 65.033 267.994 62.2275 268.807 58.3141L268.407 58.2311V57.8228H250.13C251.186 53.6391 254.958 50.6721 259.315 50.6721H260.909C264.776 50.6721 268.104 47.9394 268.857 44.1464L268.456 44.0669V43.6586H252.984C253.982 39.7609 257.502 36.9996 261.568 36.9996H266.272C269.8 36.9996 272.844 34.5231 273.562 31.0687L273.725 30.2808Z" stroke="white" stroke-opacity="0.19" stroke-width="0.816636"/>
<path d="M206.672 64.5446L206.574 65.033H207.072H232.302V64.6247L232.702 64.7065C233.44 61.1003 230.685 57.7244 227.004 57.7244H223.395C220.018 57.7244 217.486 54.6338 218.151 51.323L220.992 37.1682C221.758 33.3519 218.839 29.7894 214.947 29.7894H213.958H213.623L213.557 30.1177L206.672 64.5446Z" stroke="white" stroke-opacity="0.19" stroke-width="0.816636"/>
<path d="M219.31 30.1978H213.931L207.072 64.6247H224.286C216.97 63.764 216.307 58.08 216.889 55.3455L221.327 33.0218C221.973 30.8702 220.251 30.2426 219.31 30.1978Z" stroke="white" stroke-opacity="0.19" stroke-width="0.816636"/>
<path d="M190.778 64.8467L190.849 65.1673H191.177H193.433C196.604 65.1673 198.935 62.1943 198.178 59.1152L192.637 36.5662C191.679 32.6658 188.182 29.9237 184.165 29.9237H182.816H182.594L182.473 30.1102L160.194 64.5371L159.786 65.1673H160.537H165.081C167.685 65.1673 170.1 63.8076 171.451 61.5812C172.879 59.2275 175.432 57.7901 178.185 57.7901H189.226L190.778 64.8467ZM182.409 50.9241H177.937L181.618 44.9009C182.894 42.8135 186.063 43.3468 186.585 45.7366C187.168 48.4024 185.138 50.9241 182.409 50.9241Z" stroke="white" stroke-opacity="0.19" stroke-width="0.816636"/>
<path d="M182.731 30.1978L160.273 65.0281H162.177C166.422 65.0281 170.36 62.8131 172.564 59.1851L181.924 43.7802C189.186 31.5426 191.069 32.215 191.069 32.215C190.062 30.0337 187.04 30.1978 184.637 30.1978H182.731Z" stroke="white" stroke-opacity="0.19" stroke-width="0.816636"/>
<path d="M32.7492 51.3111C30.1942 59.7834 21.0496 58.1696 21.0495 52.7904C18.5749 64.5171 27.5494 65.566 32.3459 64.6247C46.3318 60.9937 44.4491 40.2838 47.0043 30.1978C40.4883 30.9129 35.2504 35.8881 34.2011 42.3586L32.7492 51.3111Z" stroke="white" stroke-opacity="0.19" stroke-width="0.816636"/>
<path d="M17.0114 30.4668H14.0561L11.0971 50.5043C9.88728 61.9352 20.1079 70.1385 34.4972 63.9524C18.4325 64.3154 21.6247 51.4321 23.6619 37.9469C24.2706 33.9175 21.0866 30.4668 17.0114 30.4668Z" stroke="white" stroke-opacity="0.19" stroke-width="0.816636"/>
<path d="M131.933 49.5585C132.692 39.1555 140.486 36.0013 146.708 37.2209C150.686 38.0006 155.617 38.6141 158.695 35.976C140.943 22.5278 124.622 34.9 123.999 49.5585C123.192 68.5202 146.86 69.1926 155.198 59.9135C152.705 57.2001 148.398 57.2891 144.869 58.3476C138.765 60.1781 131.933 57.653 131.933 49.5585Z" stroke="white" stroke-opacity="0.19" stroke-width="0.816636"/>
<path d="M145.091 37.0657C127.232 35.8823 124.6 46.4794 123.977 52.2621C123.305 28.4591 146.57 25.5005 158.808 35.8553C154.908 41.1003 148.184 37.0657 145.091 37.0657Z" stroke="white" stroke-opacity="0.19" stroke-width="0.816636"/>
</g>
<path d="M59.5874 29.9287L52.7289 65.7004C58.9688 66.2383 61.7839 61.0833 62.4115 58.4385C65.7735 40.5527 65.5046 37.0562 72.901 37.0562C78.3878 37.0562 79.1319 41.0906 78.8181 43.1078C78.3878 48.5946 73.2596 49.5573 69.6734 49.2883C66.0156 49.6111 63.6667 53.8662 63.6218 56.0179H71.6906C83.2022 55.6951 86.2593 46.5091 86.6179 42.0264C86.6179 31.6714 78.8181 29.9287 74.3803 29.9287H59.5874Z" fill="url(#paint0_linear_1_79)"/>
<path d="M104.887 65.7733C114.842 65.7733 122.293 61.6078 122.293 53.7254C122.293 42.2543 104.052 46.2916 104.052 41.2289C104.052 39.3705 106.107 37.8325 110.732 37.8325C113.943 37.8325 117.733 38.4733 120.944 40.4599L124.541 33.1543C121.394 31.3599 116.576 30.2705 111.759 30.2705C106.938 30.2705 102.762 31.2668 99.7171 33.1543C96.3939 35.2143 94.4173 38.3359 94.4173 42.3825C94.4173 54.0458 112.723 50.0085 112.723 54.8789C112.723 56.9296 110.667 58.2113 105.979 58.2113C104.528 58.2113 103.042 58.0699 101.596 57.8083C97.2787 57.0273 92.1751 58.3115 90.114 62.1845V62.1845C93.0043 64.2352 98.7849 65.7733 104.887 65.7733Z" fill="url(#paint1_linear_1_79)"/>
<path d="M110.421 52.7289C96.3003 43.8532 104.1 38.743 107.865 38.2051C113.89 37.1293 119.162 39.3706 121.045 40.6257L124.676 33.0948C109.183 25.7791 96.0042 32.5569 94.6863 39.1465C92.4004 51.5186 103.831 50.5772 110.421 52.7289Z" fill="url(#paint2_linear_1_79)"/>
<path d="M271.423 36.5913C274.757 36.5913 277.634 34.2507 278.312 30.9856L278.476 30.1978H252.459L248.022 52.3824C246.755 58.7157 251.599 64.6247 258.058 64.6247H265.7C269.503 64.6247 272.784 61.955 273.558 58.2311V58.2311H254.77V58.2311C255.685 53.601 259.746 50.2637 264.466 50.2637H266.06C269.732 50.2637 272.892 47.6688 273.607 44.0669V44.0669H257.623V44.0669C258.48 39.7227 262.29 36.5913 266.718 36.5913H271.423Z" fill="url(#paint3_linear_1_79)"/>
<path d="M212.222 64.6247H237.452V64.6247C238.138 61.2717 235.576 58.1327 232.154 58.1327H228.545C224.911 58.1327 222.185 54.8062 222.901 51.2426L225.741 37.0879C226.457 33.5243 223.731 30.1978 220.097 30.1978H219.108L212.222 64.6247Z" fill="url(#paint4_linear_1_79)"/>
<path d="M224.46 30.1978H219.081L212.222 64.6247H229.436C222.12 63.764 221.457 58.08 222.039 55.3455L226.477 33.0218C227.123 30.8702 225.401 30.2426 224.46 30.1978Z" fill="url(#paint5_linear_1_79)"/>
<path d="M196.327 64.759H198.583C201.489 64.759 203.625 62.0344 202.932 59.2126L197.391 36.6637C196.478 32.9458 193.144 30.332 189.316 30.332H187.967L165.687 64.759H170.231C172.693 64.759 174.975 63.4738 176.252 61.3694V61.3694C177.754 58.8937 180.44 57.3818 183.335 57.3818H194.704L196.327 64.759ZM182.36 51.3325L186.42 44.6879C187.888 42.2865 191.534 42.9 192.135 45.6495V45.6495C192.773 48.5698 190.549 51.3325 187.559 51.3325H182.36Z" fill="url(#paint6_linear_1_79)"/>
<path d="M187.882 30.1978L165.424 65.0281H167.328C171.573 65.0281 175.511 62.8131 177.715 59.1851L187.075 43.7802C194.337 31.5426 196.22 32.215 196.22 32.215C195.213 30.0337 192.19 30.1978 189.788 30.1978H187.882Z" fill="url(#paint7_linear_1_79)"/>
<path d="M37.9001 51.3111C35.345 59.7834 26.2004 58.1696 26.2003 52.7904C23.7257 64.5171 32.7002 65.566 37.4967 64.6247C51.4827 60.9937 49.6 40.2838 52.1551 30.1978C45.6391 30.9129 40.4012 35.8881 39.3519 42.3586L37.9001 51.3111Z" fill="url(#paint8_linear_1_79)"/>
<path d="M22.1622 30.4668H19.207L16.248 50.5043C15.0381 61.9352 25.2587 70.1385 39.648 63.9524C23.5833 64.3154 26.7756 51.4321 28.8127 37.9469C29.4214 33.9175 26.2374 30.4668 22.1622 30.4668Z" fill="url(#paint9_linear_1_79)"/>
<path d="M137.083 49.5575C137.843 39.1546 145.636 36.0003 151.859 37.2199C155.837 37.9996 160.767 38.6131 163.845 35.975C146.093 22.5268 129.773 34.899 129.149 49.5575C128.342 68.5192 152.011 69.1916 160.348 59.9125C157.855 57.1991 153.549 57.2881 150.019 58.3466C143.915 60.1771 137.083 57.6521 137.083 49.5575Z" fill="url(#paint10_linear_1_79)"/>
<path d="M150.242 37.0657C132.383 35.8823 129.751 46.4794 129.128 52.2621C128.456 28.4591 151.721 25.5005 163.959 35.8553C160.058 41.1003 153.335 37.0657 150.242 37.0657Z" fill="url(#paint11_linear_1_79)"/>
<defs>
<filter id="filter0_d_1_79" x="12.4667" y="22.8483" width="283.337" height="56.8078" filterUnits="userSpaceOnUse" color-interpolation-filters="sRGB">
<feFlood flood-opacity="0" result="BackgroundImageFix"/>
<feColorMatrix in="SourceAlpha" type="matrix" values="0 0 0 0 0 0 0 0 0 0 0 0 0 0 0 0 0 0 127 0" result="hardAlpha"/>
<feOffset dy="3.26655"/>
<feGaussianBlur stdDeviation="4.89982"/>
<feComposite in2="hardAlpha" operator="out"/>
<feColorMatrix type="matrix" values="0 0 0 0 0 0 0 0 0 0 0 0 0 0 0 0 0 0 0.4 0"/>
<feBlend mode="normal" in2="BackgroundImageFix" result="effect1_dropShadow_1_79"/>
<feBlend mode="normal" in="SourceGraphic" in2="effect1_dropShadow_1_79" result="shape"/>
</filter>
<filter id="filter1_d_1_79" x="0.792099" y="22.8483" width="283.337" height="56.8078" filterUnits="userSpaceOnUse" color-interpolation-filters="sRGB">
<feFlood flood-opacity="0" result="BackgroundImageFix"/>
<feColorMatrix in="SourceAlpha" type="matrix" values="0 0 0 0 0 0 0 0 0 0 0 0 0 0 0 0 0 0 127 0" result="hardAlpha"/>
<feOffset dy="3.26655"/>
<feGaussianBlur stdDeviation="4.89982"/>
<feComposite in2="hardAlpha" operator="out"/>
<feColorMatrix type="matrix" values="0 0 0 0 0 0 0 0 0 0 0 0 0 0 0 0 0 0 0.4 0"/>
<feBlend mode="normal" in2="BackgroundImageFix" result="effect1_dropShadow_1_79"/>
<feBlend mode="normal" in="SourceGraphic" in2="effect1_dropShadow_1_79" result="shape"/>
</filter>
<linearGradient id="paint0_linear_1_79" x1="55.6875" y1="35.5714" x2="81.5077" y2="56.8192" gradientUnits="userSpaceOnUse">
<stop stop-color="#BE33B5"/>
<stop offset="1" stop-color="#FF5C5C"/>
</linearGradient>
<linearGradient id="paint1_linear_1_79" x1="100.872" y1="43.4496" x2="117.817" y2="66.3112" gradientUnits="userSpaceOnUse">
<stop stop-color="#AE763F"/>
<stop offset="1" stop-color="#FF9141"/>
</linearGradient>
<linearGradient id="paint2_linear_1_79" x1="120.372" y1="33.0948" x2="109.509" y2="52.7289" gradientUnits="userSpaceOnUse">
<stop stop-color="#F75767"/>
<stop offset="1" stop-color="#FFB257"/>
</linearGradient>
<linearGradient id="paint3_linear_1_79" x1="252.432" y1="28.853" x2="270.183" y2="64.6247" gradientUnits="userSpaceOnUse">
<stop stop-color="#74FDEB"/>
<stop offset="0.516512" stop-color="#1D93FF"/>
<stop offset="1" stop-color="#9122FF"/>
</linearGradient>
<linearGradient id="paint4_linear_1_79" x1="236.563" y1="63.5488" x2="221.098" y2="60.0524" gradientUnits="userSpaceOnUse">
<stop stop-color="#76FFEF"/>
<stop offset="1" stop-color="#2BB774"/>
</linearGradient>
<linearGradient id="paint5_linear_1_79" x1="214.374" y1="36.7873" x2="220.829" y2="64.6247" gradientUnits="userSpaceOnUse">
<stop stop-color="#ABB817"/>
<stop offset="1" stop-color="#37D982"/>
</linearGradient>
<linearGradient id="paint6_linear_1_79" x1="180.486" y1="49.1593" x2="201.061" y2="55.6143" gradientUnits="userSpaceOnUse">
<stop stop-color="#867413"/>
<stop offset="1" stop-color="#ABB817"/>
</linearGradient>
<linearGradient id="paint7_linear_1_79" x1="173.896" y1="55.2111" x2="196.22" y2="30.0633" gradientUnits="userSpaceOnUse">
<stop stop-color="#FBB429"/>
<stop offset="1" stop-color="#EEE627"/>
</linearGradient>
<linearGradient id="paint8_linear_1_79" x1="38.966" y1="30.1978" x2="38.966" y2="64.8896" gradientUnits="userSpaceOnUse">
<stop stop-color="#FF39B0"/>
<stop offset="1" stop-color="#5329BC"/>
</linearGradient>
<linearGradient id="paint9_linear_1_79" x1="26.8249" y1="30.4668" x2="26.8249" y2="66.1695" gradientUnits="userSpaceOnUse">
<stop stop-color="#B352FF"/>
<stop offset="1" stop-color="#6B37FF"/>
</linearGradient>
<linearGradient id="paint10_linear_1_79" x1="135.987" y1="38.1418" x2="149.301" y2="65.1724" gradientUnits="userSpaceOnUse">
<stop offset="0.0001" stop-color="#A3851D"/>
<stop offset="1" stop-color="#FFD029"/>
</linearGradient>
<linearGradient id="paint11_linear_1_79" x1="159.521" y1="35.3176" x2="135.449" y2="42.445" gradientUnits="userSpaceOnUse">
<stop stop-color="#F48D41"/>
<stop offset="1" stop-color="#F4E241"/>
</linearGradient>
</defs>
</svg>
