<svg width="21" height="24" viewBox="0 0 21 24" fill="none" xmlns="http://www.w3.org/2000/svg">
    <path d="M10.0631 5.79808C7.22374 5.79808 4.93224 8.45218 4.93224 11.7408C4.93224 15.0295 7.22374 17.6836 10.0631 17.6836C12.9025 17.6836 15.194 15.0295 15.194 11.7408C15.194 8.45218 12.9025 5.79808 10.0631 5.79808ZM10.0631 15.6032C8.2269 15.6032 6.72842 13.8676 6.72842 11.7408C6.72842 9.61408 8.2269 7.87848 10.0631 7.87848C11.8993 7.87848 13.3978 9.61408 13.3978 11.7408C13.3978 13.8676 11.8993 15.6032 10.0631 15.6032ZM15.4041 4.16968C14.7412 4.16968 14.2058 4.78975 14.2058 5.55758C14.2058 6.32542 14.7412 6.94548 15.4041 6.94548C16.0671 6.94548 16.6024 6.32832 16.6024 5.55758C16.6026 5.37526 16.5717 5.19468 16.5116 5.02619C16.4514 4.8577 16.3632 4.70461 16.2519 4.57568C16.1406 4.44676 16.0084 4.34453 15.8629 4.27487C15.7174 4.2052 15.5615 4.16946 15.4041 4.16968ZM20.0647 11.7408C20.0647 10.1414 20.0772 8.55649 19.9996 6.95997C19.9221 5.10558 19.5568 3.4598 18.3861 2.10377C17.2128 0.744847 15.7944 0.32471 14.1933 0.234888C12.8124 0.145066 11.444 0.159553 10.0656 0.159553C8.6847 0.159553 7.3163 0.145066 5.9379 0.234888C4.33685 0.32471 2.91591 0.747744 1.74514 2.10377C0.571872 3.4627 0.209134 5.10558 0.131583 6.95997C0.0540317 8.55939 0.06654 10.1443 0.06654 11.7408C0.06654 13.3374 0.0540317 14.9252 0.131583 16.5217C0.209134 18.3761 0.574374 20.0219 1.74514 21.3779C2.91841 22.7368 4.33685 23.157 5.9379 23.2468C7.3188 23.3366 8.6872 23.3221 10.0656 23.3221C11.4465 23.3221 12.8149 23.3366 14.1933 23.2468C15.7944 23.157 17.2153 22.7339 18.3861 21.3779C19.5593 20.019 19.9221 18.3761 19.9996 16.5217C20.0797 14.9252 20.0647 13.3403 20.0647 11.7408ZM17.8632 18.5731C17.6806 19.1005 17.4605 19.4945 17.1077 19.9002C16.755 20.3087 16.4173 20.5637 15.962 20.7752C14.6461 21.3808 11.5216 21.2446 10.0631 21.2446C8.60465 21.2446 5.4776 21.3808 4.16173 20.7781C3.70643 20.5666 3.36621 20.3116 3.01598 19.9031C2.66325 19.4945 2.4431 19.1034 2.26048 18.576C1.74014 17.049 1.85772 13.4301 1.85772 11.7408C1.85772 10.0516 1.74014 6.42973 2.26048 4.90565C2.4431 4.3783 2.66325 3.98425 3.01598 3.5786C3.36871 3.17295 3.70643 2.91507 4.16173 2.70355C5.4776 2.10087 8.60465 2.23706 10.0631 2.23706C11.5216 2.23706 14.6486 2.10087 15.9645 2.70355C16.4198 2.91507 16.76 3.17005 17.1102 3.5786C17.463 3.98714 17.6831 4.3783 17.8657 4.90565C18.3861 6.42973 18.2685 10.0516 18.2685 11.7408C18.2685 13.4301 18.3861 17.049 17.8632 18.5731Z"
          fill="white"/>
</svg>
