<svg width="21" height="25" viewBox="0 0 21 25" fill="none" xmlns="http://www.w3.org/2000/svg">
    <path id="Vector"
          d="M18.033 24.3225H16.363C15.8325 24.3225 15.3238 24.0785 14.9487 23.644C14.5737 23.2096 14.363 22.6204 14.363 22.0061V15.7865C14.3719 15.5425 14.3082 15.3025 14.1826 15.1064C14.057 14.9103 13.8771 14.7701 13.673 14.7093C13.5542 14.6884 13.4329 14.6972 13.3173 14.7351C13.2018 14.7731 13.0946 14.8393 13.003 14.9294C12.9087 15.022 12.833 15.1374 12.7812 15.2674C12.7294 15.3975 12.7027 15.539 12.703 15.6822V22.0061C12.703 22.6204 12.4922 23.2096 12.1172 23.644C11.7421 24.0785 11.2334 24.3225 10.703 24.3225H9.03296C8.50253 24.3225 7.99382 24.0785 7.61875 23.644C7.24367 23.2096 7.03296 22.6204 7.03296 22.0061V15.6822C7.03296 13.6856 7.71778 11.7707 8.93677 10.3588C10.1558 8.947 11.8091 8.15383 13.533 8.15383C15.2569 8.15383 16.9102 8.947 18.1292 10.3588C19.3481 11.7707 20.033 13.6856 20.033 15.6822V22.0061C20.033 22.6204 19.8222 23.2096 19.4472 23.644C19.0721 24.0785 18.5634 24.3225 18.033 24.3225ZM13.533 12.3813C13.6895 12.3699 13.8464 12.3699 14.003 12.3813C14.6743 12.5309 15.2788 12.9495 15.7103 13.5637C16.1419 14.1778 16.3729 14.9484 16.363 15.7401V22.0061H18.033V15.6822C18.033 14.2999 17.5589 12.9742 16.7149 11.9968C15.871 11.0194 14.7264 10.4703 13.533 10.4703C12.3395 10.4703 11.1949 11.0194 10.351 11.9968C9.50707 12.9742 9.03296 14.2999 9.03296 15.6822V22.0061H10.703V15.6822C10.7029 14.8108 11.0005 13.9747 11.5306 13.3563C12.0608 12.7379 12.7806 12.3874 13.533 12.3813ZM4.03296 24.3225H2.03296C1.50253 24.3225 0.993819 24.0785 0.618747 23.644C0.243674 23.2096 0.0329604 22.6204 0.0329604 22.0061V10.4239C0.0329604 9.80958 0.243674 9.22039 0.618747 8.78597C0.993819 8.35156 1.50253 8.1075 2.03296 8.1075H4.03296C4.56339 8.1075 5.0721 8.35156 5.44717 8.78597C5.82225 9.22039 6.03296 9.80958 6.03296 10.4239V22.0061C6.03296 22.6204 5.82225 23.2096 5.44717 23.644C5.0721 24.0785 4.56339 24.3225 4.03296 24.3225ZM2.03296 10.4239V22.0061H4.03296V10.4239H2.03296ZM3.03296 6.94929C2.43962 6.94929 1.8596 6.7455 1.36625 6.36371C0.872902 5.98191 0.488385 5.43924 0.261322 4.80433C0.0342588 4.16943 -0.0251512 3.47079 0.0906045 2.79678C0.20636 2.12276 0.492083 1.50364 0.91164 1.0177C1.3312 0.531763 1.86575 0.200836 2.44769 0.0667659C3.02963 -0.067304 3.63283 0.00150551 4.18101 0.264493C4.72919 0.527481 5.19772 0.972835 5.52737 1.54424C5.85701 2.11564 6.03296 2.78743 6.03296 3.47465C6.03296 4.39618 5.71689 5.27997 5.15428 5.93159C4.59167 6.58321 3.82861 6.94929 3.03296 6.94929ZM3.03296 2.31643C2.83518 2.31643 2.64184 2.38436 2.47739 2.51163C2.31294 2.63889 2.18477 2.81978 2.10908 3.03142C2.03339 3.24305 2.01359 3.47593 2.05218 3.7006C2.09076 3.92527 2.186 4.13165 2.32585 4.29363C2.46571 4.45561 2.64389 4.56592 2.83787 4.61061C3.03185 4.6553 3.23292 4.63236 3.41564 4.5447C3.59837 4.45703 3.75455 4.30858 3.86443 4.11811C3.97431 3.92765 4.03296 3.70372 4.03296 3.47465C4.03296 3.16747 3.9276 2.87287 3.74007 2.65566C3.55253 2.43846 3.29818 2.31643 3.03296 2.31643Z"
          fill="white"/>
</svg>
