<svg width="20" height="24" viewBox="0 0 20 24" fill="none" xmlns="http://www.w3.org/2000/svg">
    <g id="Group 48044">
        <path id="Vector"
              d="M5.85685 10.8496C7.18477 9.31693 9.50073 9.31693 10.8286 10.8496L11.6573 11.8059L13.3146 9.89319L12.4859 8.93681C11.3807 7.65985 9.9086 6.95508 8.34275 6.95508C6.7769 6.95508 5.30481 7.65985 4.19958 8.93681L1.7125 11.8059C0.615817 13.0757 0 14.7956 0 16.5885C0 18.3814 0.615817 20.1012 1.7125 21.371C2.25618 21.9994 2.90209 22.4976 3.61311 22.837C4.32413 23.1764 5.08625 23.3503 5.85567 23.3487C6.62531 23.3505 7.38767 23.1768 8.09891 22.8374C8.81015 22.498 9.45624 21.9996 10 21.371L10.8286 20.4146L9.17138 18.5019L8.34275 19.4583C7.68227 20.2172 6.78823 20.6432 5.85626 20.6432C4.92429 20.6432 4.03025 20.2172 3.36977 19.4583C2.71167 18.6963 2.34213 17.6643 2.34213 16.5885C2.34213 15.5126 2.71167 14.4806 3.36977 13.7187L5.85685 10.8496Z"
              fill="white"/>
        <path id="Vector_2"
              d="M9.99996 2.24128L9.17133 3.19766L10.8286 5.1104L11.6572 4.15403C12.3177 3.39514 13.2117 2.96909 14.1437 2.96909C15.0757 2.96909 15.9697 3.39514 16.6302 4.15403C17.2883 4.91598 17.6578 5.94796 17.6578 7.02382C17.6578 8.09968 17.2883 9.13167 16.6302 9.89362L14.1431 12.7627C12.8152 14.2954 10.4993 14.2954 9.17133 12.7627L8.34269 11.8064L6.68542 13.7191L7.51406 14.6755C8.61929 15.9524 10.0914 16.6572 11.6572 16.6572C13.2231 16.6572 14.6952 15.9524 15.8004 14.6755L18.2875 11.8064C19.3842 10.5365 20 8.81674 20 7.02382C20 5.2309 19.3842 3.5111 18.2875 2.24128C17.1876 0.974875 15.6974 0.263672 14.1437 0.263672C12.5901 0.263672 11.0999 0.974875 9.99996 2.24128V2.24128Z"
              fill="white"/>
    </g>
</svg>
